<svg xmlns="http://www.w3.org/2000/svg" version="1.1" xmlns:xlink="http://www.w3.org/1999/xlink" xmlns:svgjs="http://svgjs.dev/svgjs" width="1500" height="1448" viewBox="0 0 1500 1448"><g transform="matrix(1,0,0,1,1.4172237502156122,0.7769531890132839)"><svg viewBox="0 0 260 251" data-background-color="#000000" preserveAspectRatio="xMidYMid meet" height="1448" width="1500" xmlns="http://www.w3.org/2000/svg" xmlns:xlink="http://www.w3.org/1999/xlink"><g id="tight-bounds" transform="matrix(1,0,0,1,-0.24565211670403642,-0.1346790403607372)"><svg viewBox="0 0 260.4913042334081 247.2" height="247.2" width="260.4913042334081"><rect width="260.4913042334081" height="251.2693580807215" fill="url(#9a919731-63f1-4f80-84d3-ddc4d4c0090c)" mask="url(#03f0a901-696b-42cf-bb11-a240bbde1046)" data-fill-palette-color="tertiary"></rect><g><svg viewBox="0 0 332.39957373422817 315.43922308237643" height="247.2" width="260.4913042334081"><g><svg viewBox="0 0 332.39957373422817 315.43922308237643" height="315.43922308237643" width="332.39957373422817"><g id="textblocktransform"><svg viewBox="0 0 332.39957373422817 315.43922308237643" height="315.43922308237643" width="332.39957373422817" id="textblock"><g><rect width="89.7478849082416" height="22.154981908537724" y="298.47694000647135" fill="url(#9a919731-63f1-4f80-84d3-ddc4d4c0090c)" data-fill-palette-color="tertiary"></rect><rect width="89.7478849082416" height="22.154981908537724" y="298.47694000647135" x="242.65168882598658" fill="url(#9a919731-63f1-4f80-84d3-ddc4d4c0090c)" data-fill-palette-color="tertiary"></rect></g><g><svg viewBox="0 0 332.39957373422817 245.67230399999997" height="245.67230399999997" width="332.39957373422817"><g transform="matrix(1,0,0,1,0,0)"><svg width="332.39957373422817" viewBox="0.22 -36.11 49.22 36.379999999999995" height="245.67230399999997" data-palette-color="url(#eca4a1f5-0695-4180-9064-ab9b93b7859d)"></svg></g></svg></g><g transform="matrix(1,0,0,1,89.7478849082416,303.669638839104)"><svg viewBox="0 0 152.90380391774497 11.769584243272437" height="11.769584243272437" width="152.90380391774497"><g transform="matrix(1,0,0,1,8,0)"><svg width="136.90380391774497" viewBox="1.45 -37 436.15000000000003 37.5" height="11.769584243272437" data-palette-color="url(#2b79dfd8-04e2-485b-b123-e9231c4f9d2d)"></svg></g></svg></g></svg></g></svg></g></svg></g><defs></defs><mask id="83d9c55d-53db-4665-a5bd-a9fd7345368a"><g id="SvgjsG5600"><svg viewBox="0 0 260.4913042334081 247.2" height="247.2" width="260.4913042334081"><g><svg viewBox="0 0 332.39957373422817 315.43922308237643" height="247.2" width="260.4913042334081"><g><svg viewBox="0 0 332.39957373422817 315.43922308237643" height="315.43922308237643" width="332.39957373422817"><g id="SvgjsG5599"><svg viewBox="0 0 332.39957373422817 315.43922308237643" height="315.43922308237643" width="332.39957373422817" id="SvgjsSvg5598"><g><rect width="89.7478849082416" height="22.154981908537724" y="298.47694000647135" fill="black"></rect><rect width="89.7478849082416" height="22.154981908537724" y="298.47694000647135" x="242.65168882598658" fill="black"></rect></g><g><svg viewBox="0 0 332.39957373422817 245.67230399999997" height="245.67230399999997" width="332.39957373422817"><g transform="matrix(1,0,0,1,0,0)"><svg width="332.39957373422817" viewBox="0.22 -36.11 49.22 36.379999999999995" height="245.67230399999997" data-palette-color="url(#eca4a1f5-0695-4180-9064-ab9b93b7859d)"><path d="M17.26-4.35L10.42-4.35Q5.96-4.35 4.32-4.42L4.32-4.42 3.61-2.73Q3.3-2.03 3.03-1.25L3.03-1.25Q2.47 0.27 1.46 0.27L1.46 0.27Q1 0.27 0.71-0.02 0.42-0.32 0.42-0.63L0.42-0.63Q0.42-1.17 0.88-1.83L0.88-1.83Q1.61-2.86 2.32-4.52L2.32-4.52Q0.22-4.71 0.22-5.74 0.22-6.76 1.42-6.76L1.42-6.76Q2.15-6.76 3.13-6.52L3.13-6.52 15.31-36.11 32.01 0 19.29 0 17.26-4.35ZM10.35-19.29L5.1-6.32Q7.45-6.13 9.3-6.13L9.3-6.13 16.46-6.13 10.35-19.29ZM36.98 0L36.98-34.55 49.44-34.55 49.44 0 36.98 0Z" opacity="1" transform="matrix(1,0,0,1,0,0)" fill="white" class="wordmark-text-0" id="SvgjsPath5597"></path></svg></g></svg></g><g transform="matrix(1,0,0,1,89.7478849082416,303.669638839104)"><svg viewBox="0 0 152.90380391774497 11.769584243272437" height="11.769584243272437" width="152.90380391774497"><g transform="matrix(1,0,0,1,8,0)"><svg width="136.90380391774497" viewBox="1.45 -37 436.15000000000003 37.5" height="11.769584243272437" data-palette-color="url(#2b79dfd8-04e2-485b-b123-e9231c4f9d2d)"><path d="M13.2-36.8L13.2-36.8Q13.95-36.8 14.83-36.65 15.7-36.5 16.35-36.13 17-35.75 17-35L17-35Q17-34.45 16.6-34.02 16.2-33.6 15.7-33.6L15.7-33.6Q15.2-33.6 14.45-33.88 13.7-34.15 12.85-34.15L12.85-34.15Q11.8-34.15 11.05-33.68 10.3-33.2 9.9-32.33 9.5-31.45 9.5-30.2L9.5-30.2 9.5-1.5Q9.5-0.9 9.08-0.45 8.65 0 8 0L8 0Q7.35 0 6.93-0.45 6.5-0.9 6.5-1.5L6.5-1.5 6.5-30.2Q6.5-33.4 8.38-35.1 10.25-36.8 13.2-36.8ZM2.85-25.05L15.1-25.05Q15.7-25.05 16.1-24.65 16.5-24.25 16.5-23.65L16.5-23.65Q16.5-23.05 16.1-22.65 15.7-22.25 15.1-22.25L15.1-22.25 2.85-22.25Q2.3-22.25 1.88-22.68 1.45-23.1 1.45-23.65L1.45-23.65Q1.45-24.3 1.88-24.68 2.3-25.05 2.85-25.05L2.85-25.05ZM24.5-24.5L24.5-1.5Q24.5-0.9 24.05-0.45 23.6 0 23 0L23 0Q22.35 0 21.92-0.45 21.5-0.9 21.5-1.5L21.5-1.5 21.5-24.5Q21.5-25.1 21.92-25.55 22.35-26 23-26L23-26Q23.65-26 24.07-25.55 24.5-25.1 24.5-24.5L24.5-24.5ZM23-29.35L23-29.35Q21.95-29.35 21.42-29.83 20.9-30.3 20.9-31.2L20.9-31.2 20.9-31.7Q20.9-32.6 21.47-33.08 22.05-33.55 23.05-33.55L23.05-33.55Q24-33.55 24.52-33.08 25.05-32.6 25.05-31.7L25.05-31.7 25.05-31.2Q25.05-30.3 24.52-29.83 24-29.35 23-29.35ZM44.34-26.15L44.34-26.15Q47.65-26.15 49.62-24.83 51.59-23.5 52.47-21.23 53.34-18.95 53.34-16.2L53.34-16.2 53.34-1.5Q53.34-0.9 52.9-0.45 52.45 0 51.84 0L51.84 0Q51.15 0 50.75-0.45 50.34-0.9 50.34-1.5L50.34-1.5 50.34-16.05Q50.34-18.05 49.7-19.7 49.05-21.35 47.57-22.35 46.09-23.35 43.7-23.35L43.7-23.35Q41.55-23.35 39.62-22.35 37.7-21.35 36.5-19.7 35.3-18.05 35.3-16.05L35.3-16.05 35.3-1.5Q35.3-0.9 34.84-0.45 34.4 0 33.8 0L33.8 0Q33.09 0 32.7-0.45 32.3-0.9 32.3-1.5L32.3-1.5 32.3-23.9Q32.3-24.5 32.72-24.95 33.15-25.4 33.8-25.4L33.8-25.4Q34.45-25.4 34.87-24.95 35.3-24.5 35.3-23.9L35.3-23.9 35.3-19.7 34.15-17.9Q34.25-19.5 35.17-20.98 36.09-22.45 37.55-23.63 39-24.8 40.77-25.48 42.55-26.15 44.34-26.15ZM81.94-37L81.94-37Q82.59-37 83.02-36.58 83.44-36.15 83.44-35.5L83.44-35.5 83.44-1.5Q83.44-0.9 82.99-0.45 82.54 0 81.94 0L81.94 0Q81.24 0 80.84-0.45 80.44-0.9 80.44-1.5L80.44-1.5 80.44-7.45 81.29-8.15Q81.29-6.75 80.54-5.23 79.79-3.7 78.42-2.4 77.04-1.1 75.22-0.3 73.39 0.5 71.24 0.5L71.24 0.5Q67.94 0.5 65.27-1.25 62.59-3 61.04-6 59.49-9 59.49-12.85L59.49-12.85Q59.49-16.65 61.04-19.68 62.59-22.7 65.24-24.43 67.89-26.15 71.19-26.15L71.19-26.15Q73.29-26.15 75.14-25.4 76.99-24.65 78.42-23.35 79.84-22.05 80.67-20.38 81.49-18.7 81.49-16.9L81.49-16.9 80.44-17.65 80.44-35.5Q80.44-36.1 80.84-36.55 81.24-37 81.94-37ZM71.54-2.3L71.54-2.3Q74.19-2.3 76.24-3.68 78.29-5.05 79.47-7.43 80.64-9.8 80.64-12.85L80.64-12.85Q80.64-15.85 79.47-18.23 78.29-20.6 76.24-21.98 74.19-23.35 71.54-23.35L71.54-23.35Q68.94-23.35 66.87-21.98 64.79-20.6 63.62-18.23 62.44-15.85 62.44-12.85L62.44-12.85Q62.44-9.85 63.62-7.45 64.79-5.05 66.87-3.68 68.94-2.3 71.54-2.3ZM103.29-25.45L103.29-25.45 114.94-25.45Q115.54-25.45 115.94-25.03 116.34-24.6 116.34-24L116.34-24Q116.34-23.45 115.94-23.05 115.54-22.65 114.94-22.65L114.94-22.65 103.29-22.65Q102.69-22.65 102.26-23.08 101.84-23.5 101.84-24.05L101.84-24.05Q101.84-24.65 102.26-25.05 102.69-25.45 103.29-25.45ZM108.44-32.5L108.44-32.5Q109.09-32.5 109.51-32.05 109.94-31.6 109.94-31L109.94-31 109.94-5.9Q109.94-4.5 110.31-3.8 110.69-3.1 111.29-2.88 111.89-2.65 112.49-2.65L112.49-2.65Q112.89-2.65 113.21-2.78 113.54-2.9 113.94-2.9L113.94-2.9Q114.39-2.9 114.71-2.55 115.04-2.2 115.04-1.65L115.04-1.65Q115.04-0.95 114.24-0.48 113.44 0 112.34 0L112.34 0Q111.89 0 110.99-0.08 110.09-0.15 109.14-0.63 108.19-1.1 107.56-2.3 106.94-3.5 106.94-5.75L106.94-5.75 106.94-31Q106.94-31.6 107.36-32.05 107.79-32.5 108.44-32.5ZM133.54-25.75L133.54-25.75Q136.69-25.75 138.64-24.4 140.59-23.05 141.51-20.75 142.44-18.45 142.44-15.65L142.44-15.65 142.44-1.5Q142.44-0.9 141.99-0.45 141.54 0 140.94 0L140.94 0Q140.24 0 139.84-0.45 139.44-0.9 139.44-1.5L139.44-1.5 139.44-15.65Q139.44-17.7 138.81-19.35 138.19-21 136.79-21.98 135.39-22.95 133.04-22.95L133.04-22.95Q130.94-22.95 129.06-21.98 127.19-21 126.04-19.35 124.89-17.7 124.89-15.65L124.89-15.65 124.89-1.5Q124.89-0.9 124.44-0.45 123.99 0 123.39 0L123.39 0Q122.69 0 122.29-0.45 121.89-0.9 121.89-1.5L121.89-1.5 121.89-35.5Q121.89-36.1 122.31-36.55 122.74-37 123.39-37L123.39-37Q124.04-37 124.46-36.55 124.89-36.1 124.89-35.5L124.89-35.5 124.89-19.3 123.74-17.55Q123.84-19.1 124.71-20.58 125.59-22.05 126.99-23.23 128.39-24.4 130.09-25.08 131.79-25.75 133.54-25.75ZM161.63 0.5L161.63 0.5Q157.78 0.5 154.83-1.15 151.88-2.8 150.23-5.75 148.58-8.7 148.58-12.65L148.58-12.65Q148.58-16.9 150.26-19.9 151.93-22.9 154.61-24.53 157.28-26.15 160.28-26.15L160.28-26.15Q162.48-26.15 164.56-25.38 166.63-24.6 168.23-23.08 169.83-21.55 170.83-19.35 171.83-17.15 171.88-14.25L171.88-14.25Q171.88-13.65 171.43-13.23 170.98-12.8 170.38-12.8L170.38-12.8 150.33-12.8 149.73-15.5 169.43-15.5 168.78-14.9 168.78-15.9Q168.53-18.25 167.23-19.9 165.93-21.55 164.11-22.4 162.28-23.25 160.28-23.25L160.28-23.25Q158.78-23.25 157.21-22.65 155.63-22.05 154.36-20.78 153.08-19.5 152.28-17.53 151.48-15.55 151.48-12.85L151.48-12.85Q151.48-9.9 152.68-7.5 153.88-5.1 156.13-3.7 158.38-2.3 161.58-2.3L161.58-2.3Q163.28-2.3 164.68-2.8 166.08-3.3 167.16-4.13 168.23-4.95 168.93-5.85L168.93-5.85Q169.48-6.3 169.98-6.3L169.98-6.3Q170.53-6.3 170.91-5.9 171.28-5.5 171.28-5L171.28-5Q171.28-4.4 170.78-3.95L170.78-3.95Q169.28-2.15 166.88-0.83 164.48 0.5 161.63 0.5ZM203.88-26.15L203.88-26.15Q207.28-26.15 209.9-24.45 212.53-22.75 214.08-19.78 215.63-16.8 215.63-12.9L215.63-12.9Q215.63-9.1 214.08-6.05 212.53-3 209.88-1.25 207.23 0.5 203.93 0.5L203.93 0.5Q202.18 0.5 200.6-0.05 199.03-0.6 197.73-1.53 196.43-2.45 195.43-3.7 194.43-4.95 193.83-6.4L193.83-6.4 194.73-7.05 194.73-1.4Q194.73-0.75 194.3-0.33 193.88 0.1 193.23 0.1L193.23 0.1Q192.58 0.1 192.15-0.33 191.73-0.75 191.73-1.4L191.73-1.4 191.73-35.45Q191.73-36.1 192.13-36.52 192.53-36.95 193.23-36.95L193.23-36.95Q193.88-36.95 194.3-36.52 194.73-36.1 194.73-35.45L194.73-35.45 194.73-18.7 194.03-19.1Q194.53-20.65 195.5-21.93 196.48-23.2 197.78-24.15 199.08-25.1 200.63-25.63 202.18-26.15 203.88-26.15ZM203.63-23.35L203.63-23.35Q200.93-23.35 198.88-22 196.83-20.65 195.65-18.3 194.48-15.95 194.48-12.9L194.48-12.9Q194.48-9.9 195.65-7.48 196.83-5.05 198.88-3.68 200.93-2.3 203.63-2.3L203.63-2.3Q206.28-2.3 208.3-3.7 210.33-5.1 211.53-7.53 212.73-9.95 212.73-12.9L212.73-12.9Q212.73-15.95 211.53-18.3 210.33-20.65 208.3-22 206.28-23.35 203.63-23.35ZM233.18 0.5L233.18 0.5Q229.33 0.5 226.38-1.15 223.43-2.8 221.78-5.75 220.13-8.7 220.13-12.65L220.13-12.65Q220.13-16.9 221.8-19.9 223.48-22.9 226.15-24.53 228.83-26.15 231.83-26.15L231.83-26.15Q234.03-26.15 236.1-25.38 238.18-24.6 239.78-23.08 241.38-21.55 242.38-19.35 243.38-17.15 243.43-14.25L243.43-14.25Q243.43-13.65 242.98-13.23 242.53-12.8 241.93-12.8L241.93-12.8 221.88-12.8 221.28-15.5 240.98-15.5 240.33-14.9 240.33-15.9Q240.08-18.25 238.78-19.9 237.48-21.55 235.65-22.4 233.83-23.25 231.83-23.25L231.83-23.25Q230.33-23.25 228.75-22.65 227.18-22.05 225.9-20.78 224.63-19.5 223.83-17.53 223.03-15.55 223.03-12.85L223.03-12.85Q223.03-9.9 224.23-7.5 225.43-5.1 227.68-3.7 229.93-2.3 233.13-2.3L233.13-2.3Q234.83-2.3 236.23-2.8 237.63-3.3 238.7-4.13 239.78-4.95 240.48-5.85L240.48-5.85Q241.03-6.3 241.53-6.3L241.53-6.3Q242.08-6.3 242.45-5.9 242.83-5.5 242.83-5L242.83-5Q242.83-4.4 242.33-3.95L242.33-3.95Q240.83-2.15 238.43-0.83 236.03 0.5 233.18 0.5ZM248.17-4.05L248.17-4.05Q247.77-4.65 247.8-5.23 247.82-5.8 248.42-6.15L248.42-6.15Q248.82-6.5 249.35-6.45 249.87-6.4 250.32-5.95L250.32-5.95Q251.67-4.2 253.6-3.13 255.52-2.05 258.17-2.05L258.17-2.05Q259.57-2.05 260.95-2.53 262.32-3 263.22-3.98 264.12-4.95 264.12-6.45L264.12-6.45Q264.12-8 263.22-8.95 262.32-9.9 260.9-10.45 259.47-11 257.87-11.4L257.87-11.4Q256.17-11.85 254.57-12.43 252.97-13 251.75-13.88 250.52-14.75 249.77-16 249.02-17.25 249.02-19.05L249.02-19.05Q249.02-21.15 250.17-22.75 251.32-24.35 253.3-25.25 255.27-26.15 257.77-26.15L257.77-26.15Q259.02-26.15 260.47-25.83 261.92-25.5 263.32-24.75 264.72-24 265.82-22.7L265.82-22.7Q266.27-22.25 266.27-21.68 266.27-21.1 265.77-20.65L265.77-20.65Q265.37-20.35 264.85-20.35 264.32-20.35 263.97-20.75L263.97-20.75Q262.77-22.1 261.12-22.8 259.47-23.5 257.57-23.5L257.57-23.5Q256.12-23.5 254.85-23.03 253.57-22.55 252.72-21.6 251.87-20.65 251.87-19.1L251.87-19.1Q251.97-17.65 252.9-16.75 253.82-15.85 255.35-15.25 256.87-14.65 258.77-14.15L258.77-14.15Q260.37-13.75 261.85-13.2 263.32-12.65 264.45-11.83 265.57-11 266.25-9.75 266.92-8.5 266.92-6.6L266.92-6.6Q266.92-4.4 265.7-2.8 264.47-1.2 262.42-0.35 260.37 0.5 257.87 0.5L257.87 0.5Q255.17 0.5 252.65-0.55 250.12-1.6 248.17-4.05ZM271.42-25.45L271.42-25.45 283.07-25.45Q283.67-25.45 284.07-25.03 284.47-24.6 284.47-24L284.47-24Q284.47-23.45 284.07-23.05 283.67-22.65 283.07-22.65L283.07-22.65 271.42-22.65Q270.82-22.65 270.4-23.08 269.97-23.5 269.97-24.05L269.97-24.05Q269.97-24.65 270.4-25.05 270.82-25.45 271.42-25.45ZM276.57-32.5L276.57-32.5Q277.22-32.5 277.65-32.05 278.07-31.6 278.07-31L278.07-31 278.07-5.9Q278.07-4.5 278.45-3.8 278.82-3.1 279.42-2.88 280.02-2.65 280.62-2.65L280.62-2.65Q281.02-2.65 281.35-2.78 281.67-2.9 282.07-2.9L282.07-2.9Q282.52-2.9 282.85-2.55 283.17-2.2 283.17-1.65L283.17-1.65Q283.17-0.95 282.37-0.48 281.57 0 280.47 0L280.47 0Q280.02 0 279.12-0.08 278.22-0.15 277.27-0.63 276.32-1.1 275.7-2.3 275.07-3.5 275.07-5.75L275.07-5.75 275.07-31Q275.07-31.6 275.5-32.05 275.92-32.5 276.57-32.5ZM324.42-25.55L324.42-25.55Q325.07-25.55 325.49-25.1 325.92-24.65 325.92-24L325.92-24 325.92-1.5Q325.92-0.9 325.47-0.45 325.02 0 324.42 0L324.42 0Q323.72 0 323.32-0.45 322.92-0.9 322.92-1.5L322.92-1.5 322.92-7.45 323.77-7.85Q323.77-6.45 322.99-5 322.22-3.55 320.87-2.3 319.52-1.05 317.69-0.28 315.87 0.5 313.72 0.5L313.72 0.5Q310.37 0.5 307.69-1.25 305.02-3 303.49-6.05 301.97-9.1 301.97-12.9L301.97-12.9Q301.97-16.8 303.52-19.78 305.07-22.75 307.72-24.45 310.37-26.15 313.67-26.15L313.67-26.15Q315.82-26.15 317.69-25.4 319.57-24.65 320.97-23.35 322.37-22.05 323.17-20.38 323.97-18.7 323.97-16.9L323.97-16.9 322.92-17.65 322.92-24Q322.92-24.65 323.32-25.1 323.72-25.55 324.42-25.55ZM314.02-2.3L314.02-2.3Q316.67-2.3 318.72-3.68 320.77-5.05 321.94-7.48 323.12-9.9 323.12-12.9L323.12-12.9Q323.12-15.85 321.94-18.2 320.77-20.55 318.72-21.95 316.67-23.35 314.02-23.35L314.02-23.35Q311.42-23.35 309.34-22 307.27-20.65 306.09-18.3 304.92-15.95 304.92-12.9L304.92-12.9Q304.92-9.9 306.07-7.48 307.22-5.05 309.29-3.68 311.37-2.3 314.02-2.3ZM336.66-24.5L336.66-1.5Q336.66-0.9 336.21-0.45 335.76 0 335.16 0L335.16 0Q334.51 0 334.09-0.45 333.66-0.9 333.66-1.5L333.66-1.5 333.66-24.5Q333.66-25.1 334.09-25.55 334.51-26 335.16-26L335.16-26Q335.81-26 336.24-25.55 336.66-25.1 336.66-24.5L336.66-24.5ZM335.16-29.35L335.16-29.35Q334.11-29.35 333.59-29.83 333.06-30.3 333.06-31.2L333.06-31.2 333.06-31.7Q333.06-32.6 333.64-33.08 334.21-33.55 335.21-33.55L335.21-33.55Q336.16-33.55 336.69-33.08 337.21-32.6 337.21-31.7L337.21-31.7 337.21-31.2Q337.21-30.3 336.69-29.83 336.16-29.35 335.16-29.35ZM356.46-25.45L356.46-25.45 368.11-25.45Q368.71-25.45 369.11-25.03 369.51-24.6 369.51-24L369.51-24Q369.51-23.45 369.11-23.05 368.71-22.65 368.11-22.65L368.11-22.65 356.46-22.65Q355.86-22.65 355.43-23.08 355.01-23.5 355.01-24.05L355.01-24.05Q355.01-24.65 355.43-25.05 355.86-25.45 356.46-25.45ZM361.61-32.5L361.61-32.5Q362.26-32.5 362.68-32.05 363.11-31.6 363.11-31L363.11-31 363.11-5.9Q363.11-4.5 363.48-3.8 363.86-3.1 364.46-2.88 365.06-2.65 365.66-2.65L365.66-2.65Q366.06-2.65 366.38-2.78 366.71-2.9 367.11-2.9L367.11-2.9Q367.56-2.9 367.88-2.55 368.21-2.2 368.21-1.65L368.21-1.65Q368.21-0.95 367.41-0.48 366.61 0 365.51 0L365.51 0Q365.06 0 364.16-0.08 363.26-0.15 362.31-0.63 361.36-1.1 360.73-2.3 360.11-3.5 360.11-5.75L360.11-5.75 360.11-31Q360.11-31.6 360.53-32.05 360.96-32.5 361.61-32.5ZM398.41-12.8L398.41-12.8Q398.41-9 396.73-5.98 395.06-2.95 392.21-1.23 389.36 0.5 385.75 0.5L385.75 0.5Q382.21 0.5 379.33-1.23 376.46-2.95 374.78-5.98 373.11-9 373.11-12.8L373.11-12.8Q373.11-16.65 374.78-19.65 376.46-22.65 379.33-24.4 382.21-26.15 385.75-26.15L385.75-26.15Q389.36-26.15 392.21-24.4 395.06-22.65 396.73-19.65 398.41-16.65 398.41-12.8ZM395.41-12.8L395.41-12.8Q395.41-15.85 394.16-18.23 392.91-20.6 390.73-21.98 388.56-23.35 385.75-23.35L385.75-23.35Q383-23.35 380.83-21.98 378.66-20.6 377.38-18.23 376.11-15.85 376.11-12.8L376.11-12.8Q376.11-9.75 377.38-7.4 378.66-5.05 380.83-3.68 383-2.3 385.75-2.3L385.75-2.3Q388.56-2.3 390.73-3.68 392.91-5.05 394.16-7.4 395.41-9.75 395.41-12.8ZM428.15-12.8L428.15-12.8Q428.15-9 426.48-5.98 424.8-2.95 421.95-1.23 419.1 0.5 415.5 0.5L415.5 0.5Q411.95 0.5 409.08-1.23 406.2-2.95 404.53-5.98 402.85-9 402.85-12.8L402.85-12.8Q402.85-16.65 404.53-19.65 406.2-22.65 409.08-24.4 411.95-26.15 415.5-26.15L415.5-26.15Q419.1-26.15 421.95-24.4 424.8-22.65 426.48-19.65 428.15-16.65 428.15-12.8ZM425.15-12.8L425.15-12.8Q425.15-15.85 423.9-18.23 422.65-20.6 420.48-21.98 418.3-23.35 415.5-23.35L415.5-23.35Q412.75-23.35 410.58-21.98 408.4-20.6 407.13-18.23 405.85-15.85 405.85-12.8L405.85-12.8Q405.85-9.75 407.13-7.4 408.4-5.05 410.58-3.68 412.75-2.3 415.5-2.3L415.5-2.3Q418.3-2.3 420.48-3.68 422.65-5.05 423.9-7.4 425.15-9.75 425.15-12.8ZM437.6-35.5L437.6-1.5Q437.6-0.9 437.15-0.45 436.7 0 436.1 0L436.1 0Q435.45 0 435.03-0.45 434.6-0.9 434.6-1.5L434.6-1.5 434.6-35.5Q434.6-36.1 435.05-36.55 435.5-37 436.1-37L436.1-37Q436.75-37 437.18-36.55 437.6-36.1 437.6-35.5L437.6-35.5Z" opacity="1" transform="matrix(1,0,0,1,0,0)" fill="black" class="slogan-text-1" id="SvgjsPath5596"></path></svg></g></svg></g></svg></g></svg></g></svg></g><defs><mask></mask></defs></svg><rect width="260.4913042334081" height="247.2" fill="black" stroke="none" visibility="hidden"></rect></g></mask><linearGradient x1="0" x2="1" y1="0.5" y2="0.5" id="eca4a1f5-0695-4180-9064-ab9b93b7859d"><stop stop-color="#f00b51" offset="0"></stop><stop stop-color="#730062" offset="1"></stop></linearGradient><rect width="260.4913042334081" height="251.2693580807215" fill="url(#eca4a1f5-0695-4180-9064-ab9b93b7859d)" mask="url(#83d9c55d-53db-4665-a5bd-a9fd7345368a)" data-fill-palette-color="primary"></rect><mask id="e43eff27-1af7-418e-98dc-9e6846d46bf1"><g id="SvgjsG5609"><svg viewBox="0 0 260.4913042334081 247.2" height="247.2" width="260.4913042334081"><g><svg viewBox="0 0 332.39957373422817 315.43922308237643" height="247.2" width="260.4913042334081"><g><svg viewBox="0 0 332.39957373422817 315.43922308237643" height="315.43922308237643" width="332.39957373422817"><g id="SvgjsG5608"><svg viewBox="0 0 332.39957373422817 315.43922308237643" height="315.43922308237643" width="332.39957373422817" id="SvgjsSvg5607"><g><rect width="89.7478849082416" height="22.154981908537724" y="298.47694000647135" fill="black"></rect><rect width="89.7478849082416" height="22.154981908537724" y="298.47694000647135" x="242.65168882598658" fill="black"></rect></g><g><svg viewBox="0 0 332.39957373422817 245.67230399999997" height="245.67230399999997" width="332.39957373422817"><g transform="matrix(1,0,0,1,0,0)"><svg width="332.39957373422817" viewBox="0.22 -36.11 49.22 36.379999999999995" height="245.67230399999997" data-palette-color="url(#eca4a1f5-0695-4180-9064-ab9b93b7859d)"></svg></g></svg></g><g transform="matrix(1,0,0,1,89.7478849082416,303.669638839104)"><svg viewBox="0 0 152.90380391774497 11.769584243272437" height="11.769584243272437" width="152.90380391774497"><g transform="matrix(1,0,0,1,8,0)"><svg width="136.90380391774497" viewBox="1.45 -37 436.15000000000003 37.5" height="11.769584243272437" data-palette-color="url(#2b79dfd8-04e2-485b-b123-e9231c4f9d2d)"><path d="M13.2-36.8L13.2-36.8Q13.95-36.8 14.83-36.65 15.7-36.5 16.35-36.13 17-35.75 17-35L17-35Q17-34.45 16.6-34.02 16.2-33.6 15.7-33.6L15.7-33.6Q15.2-33.6 14.45-33.88 13.7-34.15 12.85-34.15L12.85-34.15Q11.8-34.15 11.05-33.68 10.3-33.2 9.9-32.33 9.5-31.45 9.5-30.2L9.5-30.2 9.5-1.5Q9.5-0.9 9.08-0.45 8.65 0 8 0L8 0Q7.35 0 6.93-0.45 6.5-0.9 6.5-1.5L6.5-1.5 6.5-30.2Q6.5-33.4 8.38-35.1 10.25-36.8 13.2-36.8ZM2.85-25.05L15.1-25.05Q15.7-25.05 16.1-24.65 16.5-24.25 16.5-23.65L16.5-23.65Q16.5-23.05 16.1-22.65 15.7-22.25 15.1-22.25L15.1-22.25 2.85-22.25Q2.3-22.25 1.88-22.68 1.45-23.1 1.45-23.65L1.45-23.65Q1.45-24.3 1.88-24.68 2.3-25.05 2.85-25.05L2.85-25.05ZM24.5-24.5L24.5-1.5Q24.5-0.9 24.05-0.45 23.6 0 23 0L23 0Q22.35 0 21.92-0.45 21.5-0.9 21.5-1.5L21.5-1.5 21.5-24.5Q21.5-25.1 21.92-25.55 22.35-26 23-26L23-26Q23.65-26 24.07-25.55 24.5-25.1 24.5-24.5L24.5-24.5ZM23-29.35L23-29.35Q21.95-29.35 21.42-29.83 20.9-30.3 20.9-31.2L20.9-31.2 20.9-31.7Q20.9-32.6 21.47-33.08 22.05-33.55 23.05-33.55L23.05-33.55Q24-33.55 24.52-33.08 25.05-32.6 25.05-31.7L25.05-31.7 25.05-31.2Q25.05-30.3 24.52-29.83 24-29.35 23-29.35ZM44.34-26.15L44.34-26.15Q47.65-26.15 49.62-24.83 51.59-23.5 52.47-21.23 53.34-18.95 53.34-16.2L53.34-16.2 53.34-1.5Q53.34-0.9 52.9-0.45 52.45 0 51.84 0L51.84 0Q51.15 0 50.75-0.45 50.34-0.9 50.34-1.5L50.34-1.5 50.34-16.05Q50.34-18.05 49.7-19.7 49.05-21.35 47.57-22.35 46.09-23.35 43.7-23.35L43.7-23.35Q41.55-23.35 39.62-22.35 37.7-21.35 36.5-19.7 35.3-18.05 35.3-16.05L35.3-16.05 35.3-1.5Q35.3-0.9 34.84-0.45 34.4 0 33.8 0L33.8 0Q33.09 0 32.7-0.45 32.3-0.9 32.3-1.5L32.3-1.5 32.3-23.9Q32.3-24.5 32.72-24.95 33.15-25.4 33.8-25.4L33.8-25.4Q34.45-25.4 34.87-24.95 35.3-24.5 35.3-23.9L35.3-23.9 35.3-19.7 34.15-17.9Q34.25-19.5 35.17-20.98 36.09-22.45 37.55-23.63 39-24.8 40.77-25.48 42.55-26.15 44.34-26.15ZM81.94-37L81.94-37Q82.59-37 83.02-36.58 83.44-36.15 83.44-35.5L83.44-35.5 83.44-1.5Q83.44-0.9 82.99-0.45 82.54 0 81.94 0L81.94 0Q81.24 0 80.84-0.45 80.44-0.9 80.44-1.5L80.44-1.5 80.44-7.45 81.29-8.15Q81.29-6.75 80.54-5.23 79.79-3.7 78.42-2.4 77.04-1.1 75.22-0.3 73.39 0.5 71.24 0.5L71.24 0.5Q67.94 0.5 65.27-1.25 62.59-3 61.04-6 59.49-9 59.49-12.85L59.49-12.85Q59.49-16.65 61.04-19.68 62.59-22.7 65.24-24.43 67.89-26.15 71.19-26.15L71.19-26.15Q73.29-26.15 75.14-25.4 76.99-24.65 78.42-23.35 79.84-22.05 80.67-20.38 81.49-18.7 81.49-16.9L81.49-16.9 80.44-17.65 80.44-35.5Q80.44-36.1 80.84-36.55 81.24-37 81.94-37ZM71.54-2.3L71.54-2.3Q74.19-2.3 76.24-3.68 78.29-5.05 79.47-7.43 80.64-9.8 80.64-12.85L80.64-12.85Q80.64-15.85 79.47-18.23 78.29-20.6 76.24-21.98 74.19-23.35 71.54-23.35L71.54-23.35Q68.94-23.35 66.87-21.98 64.79-20.6 63.62-18.23 62.44-15.85 62.44-12.85L62.44-12.85Q62.44-9.85 63.62-7.45 64.79-5.05 66.87-3.68 68.94-2.3 71.54-2.3ZM103.29-25.45L103.29-25.45 114.94-25.45Q115.54-25.45 115.94-25.03 116.34-24.6 116.34-24L116.34-24Q116.34-23.45 115.94-23.05 115.54-22.65 114.94-22.65L114.94-22.65 103.29-22.65Q102.69-22.65 102.26-23.08 101.84-23.5 101.84-24.05L101.84-24.05Q101.84-24.65 102.26-25.05 102.69-25.45 103.29-25.45ZM108.44-32.5L108.44-32.5Q109.09-32.5 109.51-32.05 109.94-31.6 109.94-31L109.94-31 109.94-5.9Q109.94-4.5 110.31-3.8 110.69-3.1 111.29-2.88 111.89-2.65 112.49-2.65L112.49-2.65Q112.89-2.65 113.21-2.78 113.54-2.9 113.94-2.9L113.94-2.9Q114.39-2.9 114.71-2.55 115.04-2.2 115.04-1.65L115.04-1.65Q115.04-0.95 114.24-0.48 113.44 0 112.34 0L112.34 0Q111.89 0 110.99-0.08 110.09-0.15 109.14-0.63 108.19-1.1 107.56-2.3 106.94-3.5 106.94-5.75L106.94-5.75 106.94-31Q106.94-31.6 107.36-32.05 107.79-32.5 108.44-32.5ZM133.54-25.75L133.54-25.75Q136.69-25.75 138.64-24.4 140.59-23.05 141.51-20.75 142.44-18.45 142.44-15.65L142.44-15.65 142.44-1.5Q142.44-0.9 141.99-0.45 141.54 0 140.94 0L140.94 0Q140.24 0 139.84-0.45 139.44-0.9 139.44-1.5L139.44-1.5 139.44-15.65Q139.44-17.7 138.81-19.35 138.19-21 136.79-21.98 135.39-22.95 133.04-22.95L133.04-22.95Q130.94-22.95 129.06-21.98 127.19-21 126.04-19.35 124.89-17.7 124.89-15.65L124.89-15.65 124.89-1.5Q124.89-0.9 124.44-0.45 123.99 0 123.39 0L123.39 0Q122.69 0 122.29-0.45 121.89-0.9 121.89-1.5L121.89-1.5 121.89-35.5Q121.89-36.1 122.31-36.55 122.74-37 123.39-37L123.39-37Q124.04-37 124.46-36.55 124.89-36.1 124.89-35.5L124.89-35.5 124.89-19.3 123.74-17.55Q123.84-19.1 124.71-20.58 125.59-22.05 126.99-23.23 128.39-24.4 130.09-25.08 131.79-25.75 133.54-25.75ZM161.63 0.5L161.63 0.5Q157.78 0.5 154.83-1.15 151.88-2.8 150.23-5.75 148.58-8.7 148.58-12.65L148.58-12.65Q148.58-16.9 150.26-19.9 151.93-22.9 154.61-24.53 157.28-26.15 160.28-26.15L160.28-26.15Q162.48-26.15 164.56-25.38 166.63-24.6 168.23-23.08 169.83-21.55 170.83-19.35 171.83-17.15 171.88-14.25L171.88-14.25Q171.88-13.65 171.43-13.23 170.98-12.8 170.38-12.8L170.38-12.8 150.33-12.8 149.73-15.5 169.43-15.5 168.78-14.9 168.78-15.9Q168.53-18.25 167.23-19.9 165.93-21.55 164.11-22.4 162.28-23.25 160.28-23.25L160.28-23.25Q158.78-23.25 157.21-22.65 155.63-22.05 154.36-20.78 153.08-19.5 152.28-17.53 151.48-15.55 151.48-12.85L151.48-12.85Q151.48-9.9 152.68-7.5 153.88-5.1 156.13-3.7 158.38-2.3 161.58-2.3L161.58-2.3Q163.28-2.3 164.68-2.8 166.08-3.3 167.16-4.13 168.23-4.95 168.93-5.85L168.93-5.85Q169.48-6.3 169.98-6.3L169.98-6.3Q170.53-6.3 170.91-5.9 171.28-5.5 171.28-5L171.28-5Q171.28-4.4 170.78-3.95L170.78-3.95Q169.28-2.15 166.88-0.83 164.48 0.5 161.63 0.5ZM203.88-26.15L203.88-26.15Q207.28-26.15 209.9-24.45 212.53-22.75 214.08-19.78 215.63-16.8 215.63-12.9L215.63-12.9Q215.63-9.1 214.08-6.05 212.53-3 209.88-1.25 207.23 0.5 203.93 0.5L203.93 0.5Q202.18 0.5 200.6-0.05 199.03-0.6 197.73-1.53 196.43-2.45 195.43-3.7 194.43-4.95 193.83-6.4L193.83-6.4 194.73-7.05 194.73-1.4Q194.73-0.75 194.3-0.33 193.88 0.1 193.23 0.1L193.23 0.1Q192.58 0.1 192.15-0.33 191.73-0.75 191.73-1.4L191.73-1.4 191.73-35.45Q191.73-36.1 192.13-36.52 192.53-36.95 193.23-36.95L193.23-36.95Q193.88-36.95 194.3-36.52 194.73-36.1 194.73-35.45L194.73-35.45 194.73-18.7 194.03-19.1Q194.53-20.65 195.5-21.93 196.48-23.2 197.78-24.15 199.08-25.1 200.63-25.63 202.18-26.15 203.88-26.15ZM203.63-23.35L203.63-23.35Q200.93-23.35 198.88-22 196.83-20.65 195.65-18.3 194.48-15.95 194.48-12.9L194.48-12.9Q194.48-9.9 195.65-7.48 196.83-5.05 198.88-3.68 200.93-2.3 203.63-2.3L203.63-2.3Q206.28-2.3 208.3-3.7 210.33-5.1 211.53-7.53 212.73-9.95 212.73-12.9L212.73-12.9Q212.73-15.95 211.53-18.3 210.33-20.65 208.3-22 206.28-23.35 203.63-23.35ZM233.18 0.5L233.18 0.5Q229.33 0.5 226.38-1.15 223.43-2.8 221.78-5.75 220.13-8.7 220.13-12.65L220.13-12.65Q220.13-16.9 221.8-19.9 223.48-22.9 226.15-24.53 228.83-26.15 231.83-26.15L231.83-26.15Q234.03-26.15 236.1-25.38 238.18-24.6 239.78-23.08 241.38-21.55 242.38-19.35 243.38-17.15 243.43-14.25L243.43-14.25Q243.43-13.65 242.98-13.23 242.53-12.8 241.93-12.8L241.93-12.8 221.88-12.8 221.28-15.5 240.98-15.5 240.33-14.9 240.33-15.9Q240.08-18.25 238.78-19.9 237.48-21.55 235.65-22.4 233.83-23.25 231.83-23.25L231.83-23.25Q230.33-23.25 228.75-22.65 227.18-22.05 225.9-20.78 224.63-19.5 223.83-17.53 223.03-15.55 223.03-12.85L223.03-12.85Q223.03-9.9 224.23-7.5 225.43-5.1 227.68-3.7 229.93-2.3 233.13-2.3L233.13-2.3Q234.83-2.3 236.23-2.8 237.63-3.3 238.7-4.13 239.78-4.95 240.48-5.85L240.48-5.85Q241.03-6.3 241.53-6.3L241.53-6.3Q242.08-6.3 242.45-5.9 242.83-5.5 242.83-5L242.83-5Q242.83-4.4 242.33-3.95L242.33-3.95Q240.83-2.15 238.43-0.83 236.03 0.5 233.18 0.5ZM248.17-4.05L248.17-4.05Q247.77-4.65 247.8-5.23 247.82-5.8 248.42-6.15L248.42-6.15Q248.82-6.5 249.35-6.45 249.87-6.4 250.32-5.95L250.32-5.95Q251.67-4.2 253.6-3.13 255.52-2.05 258.17-2.05L258.17-2.05Q259.57-2.05 260.95-2.53 262.32-3 263.22-3.98 264.12-4.95 264.12-6.45L264.12-6.45Q264.12-8 263.22-8.95 262.32-9.9 260.9-10.45 259.47-11 257.87-11.4L257.87-11.4Q256.17-11.85 254.57-12.43 252.97-13 251.75-13.88 250.52-14.75 249.77-16 249.02-17.25 249.02-19.05L249.02-19.05Q249.02-21.15 250.17-22.75 251.32-24.35 253.3-25.25 255.27-26.15 257.77-26.15L257.77-26.15Q259.02-26.15 260.47-25.83 261.92-25.5 263.32-24.75 264.72-24 265.82-22.7L265.82-22.7Q266.27-22.25 266.27-21.68 266.27-21.1 265.77-20.65L265.77-20.65Q265.37-20.35 264.85-20.35 264.32-20.35 263.97-20.75L263.97-20.75Q262.77-22.1 261.12-22.8 259.47-23.5 257.57-23.5L257.57-23.5Q256.12-23.5 254.85-23.03 253.57-22.55 252.72-21.6 251.87-20.65 251.87-19.1L251.87-19.1Q251.97-17.65 252.9-16.75 253.82-15.85 255.35-15.25 256.87-14.65 258.77-14.15L258.77-14.15Q260.37-13.75 261.85-13.2 263.32-12.65 264.45-11.83 265.57-11 266.25-9.75 266.92-8.5 266.92-6.6L266.92-6.6Q266.92-4.4 265.7-2.8 264.47-1.2 262.42-0.35 260.37 0.5 257.87 0.5L257.87 0.5Q255.17 0.5 252.65-0.55 250.12-1.6 248.17-4.05ZM271.42-25.45L271.42-25.45 283.07-25.45Q283.67-25.45 284.07-25.03 284.47-24.6 284.47-24L284.47-24Q284.47-23.45 284.07-23.05 283.67-22.65 283.07-22.65L283.07-22.65 271.42-22.65Q270.82-22.65 270.4-23.08 269.97-23.5 269.97-24.05L269.97-24.05Q269.97-24.65 270.4-25.05 270.82-25.45 271.42-25.45ZM276.57-32.5L276.57-32.5Q277.22-32.5 277.65-32.05 278.07-31.6 278.07-31L278.07-31 278.07-5.9Q278.07-4.5 278.45-3.8 278.82-3.1 279.42-2.88 280.02-2.65 280.62-2.65L280.62-2.65Q281.02-2.65 281.35-2.78 281.67-2.9 282.07-2.9L282.07-2.9Q282.52-2.9 282.85-2.55 283.17-2.2 283.17-1.65L283.17-1.65Q283.17-0.95 282.37-0.48 281.57 0 280.47 0L280.47 0Q280.02 0 279.12-0.08 278.22-0.15 277.27-0.63 276.32-1.1 275.7-2.3 275.07-3.5 275.07-5.75L275.07-5.75 275.07-31Q275.07-31.6 275.5-32.05 275.92-32.5 276.57-32.5ZM324.42-25.55L324.42-25.55Q325.07-25.55 325.49-25.1 325.92-24.65 325.92-24L325.92-24 325.92-1.5Q325.92-0.9 325.47-0.45 325.02 0 324.42 0L324.42 0Q323.72 0 323.32-0.45 322.92-0.9 322.92-1.5L322.92-1.5 322.92-7.45 323.77-7.85Q323.77-6.45 322.99-5 322.22-3.55 320.87-2.3 319.52-1.05 317.69-0.28 315.87 0.5 313.72 0.5L313.72 0.5Q310.37 0.5 307.69-1.25 305.02-3 303.49-6.05 301.97-9.1 301.97-12.9L301.97-12.9Q301.97-16.8 303.52-19.78 305.07-22.75 307.72-24.45 310.37-26.15 313.67-26.15L313.67-26.15Q315.82-26.15 317.69-25.4 319.57-24.65 320.97-23.35 322.37-22.05 323.17-20.38 323.97-18.7 323.97-16.9L323.97-16.9 322.92-17.65 322.92-24Q322.92-24.65 323.32-25.1 323.72-25.55 324.42-25.55ZM314.02-2.3L314.02-2.3Q316.67-2.3 318.72-3.68 320.77-5.05 321.94-7.48 323.12-9.9 323.12-12.9L323.12-12.9Q323.12-15.85 321.94-18.2 320.77-20.55 318.72-21.95 316.67-23.35 314.02-23.35L314.02-23.35Q311.42-23.35 309.34-22 307.27-20.65 306.09-18.3 304.92-15.95 304.92-12.9L304.92-12.9Q304.92-9.9 306.07-7.48 307.22-5.05 309.29-3.68 311.37-2.3 314.02-2.3ZM336.66-24.5L336.66-1.5Q336.66-0.9 336.21-0.45 335.76 0 335.16 0L335.16 0Q334.51 0 334.09-0.45 333.66-0.9 333.66-1.5L333.66-1.5 333.66-24.5Q333.66-25.1 334.09-25.55 334.51-26 335.16-26L335.16-26Q335.81-26 336.24-25.55 336.66-25.1 336.66-24.5L336.66-24.5ZM335.16-29.35L335.16-29.35Q334.11-29.35 333.59-29.83 333.06-30.3 333.06-31.2L333.06-31.2 333.06-31.7Q333.06-32.6 333.64-33.08 334.21-33.55 335.21-33.55L335.21-33.55Q336.16-33.55 336.69-33.08 337.21-32.6 337.21-31.7L337.21-31.7 337.21-31.2Q337.21-30.3 336.69-29.83 336.16-29.35 335.16-29.35ZM356.46-25.45L356.46-25.45 368.11-25.45Q368.71-25.45 369.11-25.03 369.51-24.6 369.51-24L369.51-24Q369.51-23.45 369.11-23.05 368.71-22.65 368.11-22.65L368.11-22.65 356.46-22.65Q355.86-22.65 355.43-23.08 355.01-23.5 355.01-24.05L355.01-24.05Q355.01-24.65 355.43-25.05 355.86-25.45 356.46-25.45ZM361.61-32.5L361.61-32.5Q362.26-32.5 362.68-32.05 363.11-31.6 363.11-31L363.11-31 363.11-5.9Q363.11-4.5 363.48-3.8 363.86-3.1 364.46-2.88 365.06-2.65 365.66-2.65L365.66-2.65Q366.06-2.65 366.38-2.78 366.71-2.9 367.11-2.9L367.11-2.9Q367.56-2.9 367.88-2.55 368.21-2.2 368.21-1.65L368.21-1.65Q368.21-0.95 367.41-0.48 366.61 0 365.51 0L365.51 0Q365.06 0 364.16-0.08 363.26-0.15 362.31-0.63 361.36-1.1 360.73-2.3 360.11-3.5 360.11-5.75L360.11-5.75 360.11-31Q360.11-31.6 360.53-32.05 360.96-32.5 361.61-32.5ZM398.41-12.8L398.41-12.8Q398.41-9 396.73-5.98 395.06-2.95 392.21-1.23 389.36 0.5 385.75 0.5L385.75 0.5Q382.21 0.5 379.33-1.23 376.46-2.95 374.78-5.98 373.11-9 373.11-12.8L373.11-12.8Q373.11-16.65 374.78-19.65 376.46-22.65 379.33-24.4 382.21-26.15 385.75-26.15L385.75-26.15Q389.36-26.15 392.21-24.4 395.06-22.65 396.73-19.65 398.41-16.65 398.41-12.8ZM395.41-12.8L395.41-12.8Q395.41-15.85 394.16-18.23 392.91-20.6 390.73-21.98 388.56-23.35 385.75-23.35L385.75-23.35Q383-23.35 380.83-21.98 378.66-20.6 377.38-18.23 376.11-15.85 376.11-12.8L376.11-12.8Q376.11-9.75 377.38-7.4 378.66-5.05 380.83-3.68 383-2.3 385.75-2.3L385.75-2.3Q388.56-2.3 390.73-3.68 392.91-5.05 394.16-7.4 395.41-9.75 395.41-12.8ZM428.15-12.8L428.15-12.8Q428.15-9 426.48-5.98 424.8-2.95 421.95-1.23 419.1 0.5 415.5 0.5L415.5 0.5Q411.95 0.5 409.08-1.23 406.2-2.95 404.53-5.98 402.85-9 402.85-12.8L402.85-12.8Q402.85-16.65 404.53-19.65 406.2-22.65 409.08-24.4 411.95-26.15 415.5-26.15L415.5-26.15Q419.1-26.15 421.95-24.4 424.8-22.65 426.48-19.65 428.15-16.65 428.15-12.8ZM425.15-12.8L425.15-12.8Q425.15-15.85 423.9-18.23 422.65-20.6 420.48-21.98 418.3-23.35 415.5-23.35L415.5-23.35Q412.75-23.35 410.58-21.98 408.4-20.6 407.13-18.23 405.85-15.85 405.85-12.8L405.85-12.8Q405.85-9.75 407.13-7.4 408.4-5.05 410.58-3.68 412.75-2.3 415.5-2.3L415.5-2.3Q418.3-2.3 420.48-3.68 422.65-5.05 423.9-7.4 425.15-9.75 425.15-12.8ZM437.6-35.5L437.6-1.5Q437.6-0.9 437.15-0.45 436.7 0 436.1 0L436.1 0Q435.45 0 435.03-0.45 434.6-0.9 434.6-1.5L434.6-1.5 434.6-35.5Q434.6-36.1 435.05-36.55 435.5-37 436.1-37L436.1-37Q436.75-37 437.18-36.55 437.6-36.1 437.6-35.5L437.6-35.5Z" opacity="1" transform="matrix(1,0,0,1,0,0)" fill="white" class="slogan-text-1" id="SvgjsPath5606"></path></svg></g></svg></g></svg></g></svg></g></svg></g><defs><mask></mask></defs><mask><g id="SvgjsG5605"><svg viewBox="0 0 260.4913042334081 247.2" height="247.2" width="260.4913042334081"><g><svg viewBox="0 0 332.39957373422817 315.43922308237643" height="247.2" width="260.4913042334081"><g><svg viewBox="0 0 332.39957373422817 315.43922308237643" height="315.43922308237643" width="332.39957373422817"><g id="SvgjsG5604"><svg viewBox="0 0 332.39957373422817 315.43922308237643" height="315.43922308237643" width="332.39957373422817" id="SvgjsSvg5603"><g><rect width="89.7478849082416" height="22.154981908537724" y="298.47694000647135" fill="black"></rect><rect width="89.7478849082416" height="22.154981908537724" y="298.47694000647135" x="242.65168882598658" fill="black"></rect></g><g><svg viewBox="0 0 332.39957373422817 245.67230399999997" height="245.67230399999997" width="332.39957373422817"><g transform="matrix(1,0,0,1,0,0)"><svg width="332.39957373422817" viewBox="0.22 -36.11 49.22 36.379999999999995" height="245.67230399999997" data-palette-color="url(#eca4a1f5-0695-4180-9064-ab9b93b7859d)"><path d="M17.26-4.35L10.42-4.35Q5.96-4.35 4.32-4.42L4.32-4.42 3.61-2.73Q3.3-2.03 3.03-1.25L3.03-1.25Q2.47 0.27 1.46 0.27L1.46 0.27Q1 0.27 0.71-0.02 0.42-0.32 0.42-0.63L0.42-0.63Q0.42-1.17 0.88-1.83L0.88-1.83Q1.61-2.86 2.32-4.52L2.32-4.52Q0.22-4.71 0.22-5.74 0.22-6.76 1.42-6.76L1.42-6.76Q2.15-6.76 3.13-6.52L3.13-6.52 15.31-36.11 32.01 0 19.29 0 17.26-4.35ZM10.35-19.29L5.1-6.32Q7.45-6.13 9.3-6.13L9.3-6.13 16.46-6.13 10.35-19.29ZM36.98 0L36.98-34.55 49.44-34.55 49.44 0 36.98 0Z" opacity="1" transform="matrix(1,0,0,1,0,0)" fill="black" class="wordmark-text-0" id="SvgjsPath5602"></path></svg></g></svg></g><g transform="matrix(1,0,0,1,89.7478849082416,303.669638839104)"><svg viewBox="0 0 152.90380391774497 11.769584243272437" height="11.769584243272437" width="152.90380391774497"><g transform="matrix(1,0,0,1,8,0)"><svg width="136.90380391774497" viewBox="1.45 -37 436.15000000000003 37.5" height="11.769584243272437" data-palette-color="url(#2b79dfd8-04e2-485b-b123-e9231c4f9d2d)"><path d="M13.2-36.8L13.2-36.8Q13.95-36.8 14.83-36.65 15.7-36.5 16.35-36.13 17-35.75 17-35L17-35Q17-34.45 16.6-34.02 16.2-33.6 15.7-33.6L15.7-33.6Q15.2-33.6 14.45-33.88 13.7-34.15 12.85-34.15L12.85-34.15Q11.8-34.15 11.05-33.68 10.3-33.2 9.9-32.33 9.5-31.45 9.5-30.2L9.5-30.2 9.5-1.5Q9.5-0.9 9.08-0.45 8.65 0 8 0L8 0Q7.35 0 6.93-0.45 6.5-0.9 6.5-1.5L6.5-1.5 6.5-30.2Q6.5-33.4 8.38-35.1 10.25-36.8 13.2-36.8ZM2.85-25.05L15.1-25.05Q15.7-25.05 16.1-24.65 16.5-24.25 16.5-23.65L16.5-23.65Q16.5-23.05 16.1-22.65 15.7-22.25 15.1-22.25L15.1-22.25 2.85-22.25Q2.3-22.25 1.88-22.68 1.45-23.1 1.45-23.65L1.45-23.65Q1.45-24.3 1.88-24.68 2.3-25.05 2.85-25.05L2.85-25.05ZM24.5-24.5L24.5-1.5Q24.5-0.9 24.05-0.45 23.6 0 23 0L23 0Q22.35 0 21.92-0.45 21.5-0.9 21.5-1.5L21.5-1.5 21.5-24.5Q21.5-25.1 21.92-25.55 22.35-26 23-26L23-26Q23.65-26 24.07-25.55 24.5-25.1 24.5-24.5L24.5-24.5ZM23-29.35L23-29.35Q21.95-29.35 21.42-29.83 20.9-30.3 20.9-31.2L20.9-31.2 20.9-31.7Q20.9-32.6 21.47-33.08 22.05-33.55 23.05-33.55L23.05-33.55Q24-33.55 24.52-33.08 25.05-32.6 25.05-31.7L25.05-31.7 25.05-31.2Q25.05-30.3 24.52-29.83 24-29.35 23-29.35ZM44.34-26.15L44.34-26.15Q47.65-26.15 49.62-24.83 51.59-23.5 52.47-21.23 53.34-18.95 53.34-16.2L53.34-16.2 53.34-1.5Q53.34-0.9 52.9-0.45 52.45 0 51.84 0L51.84 0Q51.15 0 50.75-0.45 50.34-0.9 50.34-1.5L50.34-1.5 50.34-16.05Q50.34-18.05 49.7-19.7 49.05-21.35 47.57-22.35 46.09-23.35 43.7-23.35L43.7-23.35Q41.55-23.35 39.62-22.35 37.7-21.35 36.5-19.7 35.3-18.05 35.3-16.05L35.3-16.05 35.3-1.5Q35.3-0.9 34.84-0.45 34.4 0 33.8 0L33.8 0Q33.09 0 32.7-0.45 32.3-0.9 32.3-1.5L32.3-1.5 32.3-23.9Q32.3-24.5 32.72-24.95 33.15-25.4 33.8-25.4L33.8-25.4Q34.45-25.4 34.87-24.95 35.3-24.5 35.3-23.9L35.3-23.9 35.3-19.7 34.15-17.9Q34.25-19.5 35.17-20.98 36.09-22.45 37.55-23.63 39-24.8 40.77-25.48 42.55-26.15 44.34-26.15ZM81.94-37L81.94-37Q82.59-37 83.02-36.58 83.44-36.15 83.44-35.5L83.44-35.5 83.44-1.5Q83.44-0.9 82.99-0.45 82.54 0 81.94 0L81.94 0Q81.24 0 80.84-0.45 80.44-0.9 80.44-1.5L80.44-1.5 80.44-7.45 81.29-8.15Q81.29-6.75 80.54-5.23 79.79-3.7 78.42-2.4 77.04-1.1 75.22-0.3 73.39 0.5 71.24 0.5L71.24 0.5Q67.94 0.5 65.27-1.25 62.59-3 61.04-6 59.49-9 59.49-12.85L59.49-12.85Q59.49-16.65 61.04-19.68 62.59-22.7 65.24-24.43 67.89-26.15 71.19-26.15L71.19-26.15Q73.29-26.15 75.14-25.4 76.99-24.65 78.42-23.35 79.84-22.05 80.67-20.38 81.49-18.7 81.49-16.9L81.49-16.9 80.44-17.65 80.44-35.5Q80.44-36.1 80.84-36.55 81.24-37 81.94-37ZM71.54-2.3L71.54-2.3Q74.19-2.3 76.24-3.68 78.29-5.05 79.47-7.43 80.64-9.8 80.64-12.85L80.64-12.85Q80.64-15.85 79.47-18.23 78.29-20.6 76.24-21.98 74.19-23.35 71.54-23.35L71.54-23.35Q68.94-23.35 66.87-21.98 64.79-20.6 63.62-18.23 62.44-15.85 62.44-12.85L62.44-12.85Q62.44-9.85 63.62-7.45 64.79-5.05 66.87-3.68 68.94-2.3 71.54-2.3ZM103.29-25.45L103.29-25.45 114.94-25.45Q115.54-25.45 115.94-25.03 116.34-24.6 116.34-24L116.34-24Q116.34-23.45 115.94-23.05 115.54-22.65 114.94-22.65L114.94-22.65 103.29-22.65Q102.69-22.65 102.26-23.08 101.84-23.5 101.84-24.05L101.84-24.05Q101.84-24.65 102.26-25.05 102.69-25.45 103.29-25.45ZM108.44-32.5L108.44-32.5Q109.09-32.5 109.51-32.05 109.94-31.6 109.94-31L109.94-31 109.94-5.9Q109.94-4.5 110.31-3.8 110.69-3.1 111.29-2.88 111.89-2.65 112.49-2.65L112.49-2.65Q112.89-2.65 113.21-2.78 113.54-2.9 113.94-2.9L113.94-2.9Q114.39-2.9 114.71-2.55 115.04-2.2 115.04-1.65L115.04-1.65Q115.04-0.95 114.24-0.48 113.44 0 112.34 0L112.34 0Q111.89 0 110.99-0.08 110.09-0.15 109.14-0.63 108.19-1.1 107.56-2.3 106.94-3.5 106.94-5.75L106.94-5.75 106.94-31Q106.94-31.6 107.36-32.05 107.79-32.5 108.44-32.5ZM133.54-25.75L133.54-25.75Q136.69-25.75 138.64-24.4 140.59-23.05 141.51-20.75 142.44-18.45 142.44-15.65L142.44-15.65 142.44-1.5Q142.44-0.9 141.99-0.45 141.54 0 140.94 0L140.94 0Q140.24 0 139.84-0.45 139.44-0.9 139.44-1.5L139.44-1.5 139.44-15.65Q139.44-17.7 138.81-19.35 138.19-21 136.79-21.98 135.39-22.95 133.04-22.95L133.04-22.95Q130.94-22.95 129.06-21.98 127.19-21 126.04-19.35 124.89-17.7 124.89-15.65L124.89-15.65 124.89-1.5Q124.89-0.9 124.44-0.45 123.99 0 123.39 0L123.39 0Q122.69 0 122.29-0.45 121.89-0.9 121.89-1.5L121.89-1.5 121.89-35.5Q121.89-36.1 122.31-36.55 122.74-37 123.39-37L123.39-37Q124.04-37 124.46-36.55 124.89-36.1 124.89-35.5L124.89-35.5 124.89-19.3 123.74-17.55Q123.84-19.1 124.71-20.58 125.59-22.05 126.99-23.23 128.39-24.4 130.09-25.08 131.79-25.75 133.54-25.75ZM161.63 0.5L161.63 0.5Q157.78 0.5 154.83-1.15 151.88-2.8 150.23-5.75 148.58-8.7 148.58-12.65L148.58-12.65Q148.58-16.9 150.26-19.9 151.93-22.9 154.61-24.53 157.28-26.15 160.28-26.15L160.28-26.15Q162.48-26.15 164.56-25.38 166.63-24.6 168.23-23.08 169.83-21.55 170.83-19.35 171.83-17.15 171.88-14.25L171.88-14.25Q171.88-13.65 171.43-13.23 170.98-12.8 170.38-12.8L170.38-12.8 150.33-12.8 149.73-15.5 169.43-15.5 168.78-14.9 168.78-15.9Q168.53-18.25 167.23-19.9 165.93-21.55 164.11-22.4 162.28-23.25 160.28-23.25L160.28-23.25Q158.78-23.25 157.21-22.65 155.63-22.05 154.36-20.78 153.08-19.5 152.28-17.53 151.48-15.55 151.48-12.85L151.48-12.85Q151.48-9.9 152.68-7.5 153.88-5.1 156.13-3.7 158.38-2.3 161.58-2.3L161.58-2.3Q163.28-2.3 164.68-2.8 166.08-3.3 167.16-4.13 168.23-4.95 168.93-5.85L168.93-5.85Q169.48-6.3 169.98-6.3L169.98-6.3Q170.53-6.3 170.91-5.9 171.28-5.5 171.28-5L171.28-5Q171.28-4.4 170.78-3.95L170.78-3.95Q169.28-2.15 166.88-0.83 164.48 0.5 161.63 0.5ZM203.88-26.15L203.88-26.15Q207.28-26.15 209.9-24.45 212.53-22.75 214.08-19.78 215.63-16.8 215.63-12.9L215.63-12.9Q215.63-9.1 214.08-6.05 212.53-3 209.88-1.25 207.23 0.5 203.93 0.5L203.93 0.5Q202.18 0.5 200.6-0.05 199.03-0.6 197.73-1.53 196.43-2.45 195.43-3.7 194.43-4.95 193.83-6.4L193.83-6.4 194.73-7.05 194.73-1.4Q194.73-0.75 194.3-0.33 193.88 0.1 193.23 0.1L193.23 0.1Q192.58 0.1 192.15-0.33 191.73-0.75 191.73-1.4L191.73-1.4 191.73-35.45Q191.73-36.1 192.13-36.52 192.53-36.95 193.23-36.95L193.23-36.95Q193.88-36.95 194.3-36.52 194.73-36.1 194.73-35.45L194.73-35.45 194.73-18.7 194.03-19.1Q194.53-20.65 195.5-21.93 196.48-23.2 197.78-24.15 199.08-25.1 200.63-25.63 202.18-26.15 203.88-26.15ZM203.63-23.35L203.63-23.35Q200.93-23.35 198.88-22 196.83-20.65 195.65-18.3 194.48-15.95 194.48-12.9L194.48-12.9Q194.48-9.9 195.65-7.48 196.83-5.05 198.88-3.68 200.93-2.3 203.63-2.3L203.63-2.3Q206.28-2.3 208.3-3.7 210.33-5.1 211.53-7.53 212.73-9.95 212.73-12.9L212.73-12.9Q212.73-15.95 211.53-18.3 210.33-20.65 208.3-22 206.28-23.35 203.63-23.35ZM233.18 0.5L233.18 0.5Q229.33 0.5 226.38-1.15 223.43-2.8 221.78-5.75 220.13-8.7 220.13-12.65L220.13-12.65Q220.13-16.9 221.8-19.9 223.48-22.9 226.15-24.53 228.83-26.15 231.83-26.15L231.83-26.15Q234.03-26.15 236.1-25.38 238.18-24.6 239.78-23.08 241.38-21.55 242.38-19.35 243.38-17.15 243.43-14.25L243.43-14.25Q243.43-13.65 242.98-13.23 242.53-12.8 241.93-12.8L241.93-12.8 221.88-12.8 221.28-15.5 240.98-15.5 240.33-14.9 240.33-15.9Q240.08-18.25 238.78-19.9 237.48-21.55 235.65-22.4 233.83-23.25 231.83-23.25L231.83-23.25Q230.33-23.25 228.75-22.65 227.18-22.05 225.9-20.78 224.63-19.5 223.83-17.53 223.03-15.55 223.03-12.85L223.03-12.85Q223.03-9.9 224.23-7.5 225.43-5.1 227.68-3.7 229.93-2.3 233.13-2.3L233.13-2.3Q234.83-2.3 236.23-2.8 237.63-3.3 238.7-4.13 239.78-4.95 240.48-5.85L240.48-5.85Q241.03-6.3 241.53-6.3L241.53-6.3Q242.08-6.3 242.45-5.9 242.83-5.5 242.83-5L242.83-5Q242.83-4.4 242.33-3.95L242.33-3.95Q240.83-2.15 238.43-0.83 236.03 0.5 233.18 0.5ZM248.17-4.05L248.17-4.05Q247.77-4.65 247.8-5.23 247.82-5.8 248.42-6.15L248.42-6.15Q248.82-6.5 249.35-6.45 249.87-6.4 250.32-5.95L250.32-5.95Q251.67-4.2 253.6-3.13 255.52-2.05 258.17-2.05L258.17-2.05Q259.57-2.05 260.95-2.53 262.32-3 263.22-3.98 264.12-4.95 264.12-6.45L264.12-6.45Q264.12-8 263.22-8.95 262.32-9.9 260.9-10.45 259.47-11 257.87-11.4L257.87-11.4Q256.17-11.85 254.57-12.43 252.97-13 251.75-13.88 250.52-14.75 249.77-16 249.02-17.25 249.02-19.05L249.02-19.05Q249.02-21.15 250.17-22.75 251.32-24.35 253.3-25.25 255.27-26.15 257.77-26.15L257.77-26.15Q259.02-26.15 260.47-25.83 261.92-25.5 263.32-24.75 264.72-24 265.82-22.7L265.82-22.7Q266.27-22.25 266.27-21.68 266.27-21.1 265.77-20.65L265.77-20.65Q265.37-20.35 264.85-20.35 264.32-20.35 263.97-20.75L263.97-20.75Q262.77-22.1 261.12-22.8 259.47-23.5 257.57-23.5L257.57-23.5Q256.12-23.5 254.85-23.03 253.57-22.55 252.72-21.6 251.87-20.65 251.87-19.1L251.87-19.1Q251.97-17.65 252.9-16.75 253.82-15.85 255.35-15.25 256.87-14.65 258.77-14.15L258.77-14.15Q260.37-13.75 261.85-13.2 263.32-12.65 264.45-11.83 265.57-11 266.25-9.75 266.92-8.5 266.92-6.6L266.92-6.6Q266.92-4.4 265.7-2.8 264.47-1.2 262.42-0.35 260.37 0.5 257.87 0.5L257.87 0.5Q255.17 0.5 252.65-0.55 250.12-1.6 248.17-4.05ZM271.42-25.45L271.42-25.45 283.07-25.45Q283.67-25.45 284.07-25.03 284.47-24.6 284.47-24L284.47-24Q284.47-23.45 284.07-23.05 283.67-22.65 283.07-22.65L283.07-22.65 271.42-22.65Q270.82-22.65 270.4-23.08 269.97-23.5 269.97-24.05L269.97-24.05Q269.97-24.65 270.4-25.05 270.82-25.45 271.42-25.45ZM276.57-32.5L276.57-32.5Q277.22-32.5 277.65-32.05 278.07-31.6 278.07-31L278.07-31 278.07-5.9Q278.07-4.5 278.45-3.8 278.82-3.1 279.42-2.88 280.02-2.65 280.62-2.65L280.62-2.65Q281.02-2.65 281.35-2.78 281.67-2.9 282.07-2.9L282.07-2.9Q282.52-2.9 282.85-2.55 283.17-2.2 283.17-1.65L283.17-1.65Q283.17-0.95 282.37-0.48 281.57 0 280.47 0L280.47 0Q280.02 0 279.12-0.08 278.22-0.15 277.27-0.63 276.32-1.1 275.7-2.3 275.07-3.5 275.07-5.75L275.07-5.75 275.07-31Q275.07-31.6 275.5-32.05 275.92-32.5 276.57-32.5ZM324.42-25.55L324.42-25.55Q325.07-25.55 325.49-25.1 325.92-24.65 325.92-24L325.92-24 325.92-1.5Q325.92-0.9 325.47-0.45 325.02 0 324.42 0L324.42 0Q323.72 0 323.32-0.45 322.92-0.9 322.92-1.5L322.92-1.5 322.92-7.45 323.77-7.85Q323.77-6.45 322.99-5 322.22-3.55 320.87-2.3 319.52-1.05 317.69-0.28 315.87 0.5 313.72 0.5L313.72 0.5Q310.37 0.5 307.69-1.25 305.02-3 303.49-6.05 301.97-9.1 301.97-12.9L301.97-12.9Q301.97-16.8 303.52-19.78 305.07-22.75 307.72-24.45 310.37-26.15 313.67-26.15L313.67-26.15Q315.82-26.15 317.69-25.4 319.57-24.65 320.97-23.35 322.37-22.05 323.17-20.38 323.97-18.7 323.97-16.9L323.97-16.9 322.92-17.65 322.92-24Q322.92-24.65 323.32-25.1 323.72-25.55 324.42-25.55ZM314.02-2.3L314.02-2.3Q316.67-2.3 318.72-3.68 320.77-5.05 321.94-7.48 323.12-9.9 323.12-12.9L323.12-12.9Q323.12-15.85 321.94-18.2 320.77-20.55 318.72-21.95 316.67-23.35 314.02-23.35L314.02-23.35Q311.42-23.35 309.34-22 307.27-20.65 306.09-18.3 304.92-15.95 304.92-12.9L304.92-12.9Q304.92-9.9 306.07-7.48 307.22-5.05 309.29-3.68 311.37-2.3 314.02-2.3ZM336.66-24.5L336.66-1.5Q336.66-0.9 336.21-0.45 335.76 0 335.16 0L335.16 0Q334.51 0 334.09-0.45 333.66-0.9 333.66-1.5L333.66-1.5 333.66-24.5Q333.66-25.1 334.09-25.55 334.51-26 335.16-26L335.16-26Q335.81-26 336.24-25.55 336.66-25.1 336.66-24.5L336.66-24.5ZM335.16-29.35L335.16-29.35Q334.11-29.35 333.59-29.83 333.06-30.3 333.06-31.2L333.06-31.2 333.06-31.7Q333.06-32.6 333.64-33.08 334.21-33.55 335.21-33.55L335.21-33.55Q336.16-33.55 336.69-33.08 337.21-32.6 337.21-31.7L337.21-31.7 337.21-31.2Q337.21-30.3 336.69-29.83 336.16-29.35 335.16-29.35ZM356.46-25.45L356.46-25.45 368.11-25.45Q368.71-25.45 369.11-25.03 369.51-24.6 369.51-24L369.51-24Q369.51-23.45 369.11-23.05 368.71-22.65 368.11-22.65L368.11-22.65 356.46-22.65Q355.86-22.65 355.43-23.08 355.01-23.5 355.01-24.05L355.01-24.05Q355.01-24.65 355.43-25.05 355.86-25.45 356.46-25.45ZM361.61-32.5L361.61-32.5Q362.26-32.5 362.68-32.05 363.11-31.6 363.11-31L363.11-31 363.11-5.9Q363.11-4.5 363.48-3.8 363.86-3.1 364.46-2.88 365.06-2.65 365.66-2.65L365.66-2.65Q366.06-2.65 366.38-2.78 366.71-2.9 367.11-2.9L367.11-2.9Q367.56-2.9 367.88-2.55 368.21-2.2 368.21-1.65L368.21-1.65Q368.21-0.95 367.41-0.48 366.61 0 365.51 0L365.51 0Q365.06 0 364.16-0.08 363.26-0.15 362.31-0.63 361.36-1.1 360.73-2.3 360.11-3.5 360.11-5.75L360.11-5.75 360.11-31Q360.11-31.6 360.53-32.05 360.96-32.5 361.61-32.5ZM398.41-12.8L398.41-12.8Q398.41-9 396.73-5.98 395.06-2.95 392.21-1.23 389.36 0.5 385.75 0.5L385.75 0.5Q382.21 0.5 379.33-1.23 376.46-2.95 374.78-5.98 373.11-9 373.11-12.8L373.11-12.8Q373.11-16.65 374.78-19.65 376.46-22.65 379.33-24.4 382.21-26.15 385.75-26.15L385.75-26.15Q389.36-26.15 392.21-24.4 395.06-22.65 396.73-19.65 398.41-16.65 398.41-12.8ZM395.41-12.8L395.41-12.8Q395.41-15.85 394.16-18.23 392.91-20.6 390.73-21.98 388.56-23.35 385.75-23.35L385.75-23.35Q383-23.35 380.83-21.98 378.66-20.6 377.38-18.23 376.11-15.85 376.11-12.8L376.11-12.8Q376.11-9.75 377.38-7.4 378.66-5.05 380.83-3.68 383-2.3 385.75-2.3L385.75-2.3Q388.56-2.3 390.73-3.68 392.91-5.05 394.16-7.4 395.41-9.75 395.41-12.8ZM428.15-12.8L428.15-12.8Q428.15-9 426.48-5.98 424.8-2.95 421.95-1.23 419.1 0.5 415.5 0.5L415.5 0.5Q411.95 0.5 409.08-1.23 406.2-2.95 404.53-5.98 402.85-9 402.85-12.8L402.85-12.8Q402.85-16.65 404.53-19.65 406.2-22.65 409.08-24.4 411.95-26.15 415.5-26.15L415.5-26.15Q419.1-26.15 421.95-24.4 424.8-22.65 426.48-19.65 428.15-16.65 428.15-12.8ZM425.15-12.8L425.15-12.8Q425.15-15.85 423.9-18.23 422.65-20.6 420.48-21.98 418.3-23.35 415.5-23.35L415.5-23.35Q412.75-23.35 410.58-21.98 408.4-20.6 407.13-18.23 405.85-15.85 405.85-12.8L405.85-12.8Q405.85-9.75 407.13-7.4 408.4-5.05 410.58-3.68 412.75-2.3 415.5-2.3L415.5-2.3Q418.3-2.3 420.48-3.68 422.65-5.05 423.9-7.4 425.15-9.75 425.15-12.8ZM437.6-35.5L437.6-1.5Q437.6-0.9 437.15-0.45 436.7 0 436.1 0L436.1 0Q435.45 0 435.03-0.45 434.6-0.9 434.6-1.5L434.6-1.5 434.6-35.5Q434.6-36.1 435.05-36.55 435.5-37 436.1-37L436.1-37Q436.75-37 437.18-36.55 437.6-36.1 437.6-35.5L437.6-35.5Z" opacity="1" transform="matrix(1,0,0,1,0,0)" fill="black" class="slogan-text-1" id="SvgjsPath5601"></path></svg></g></svg></g></svg></g></svg></g></svg></g><defs><mask></mask></defs></svg><rect width="260.4913042334081" height="247.2" fill="black" stroke="none" visibility="hidden"></rect></g></mask></svg><rect width="260.4913042334081" height="247.2" fill="black" stroke="none" visibility="hidden"></rect></g></mask><linearGradient x1="0" x2="1" y1="0.5" y2="0.5" id="2b79dfd8-04e2-485b-b123-e9231c4f9d2d"><stop stop-color="#f00b51" offset="0"></stop><stop stop-color="#730062" offset="1"></stop></linearGradient><rect width="260.4913042334081" height="251.2693580807215" fill="url(#2b79dfd8-04e2-485b-b123-e9231c4f9d2d)" mask="url(#e43eff27-1af7-418e-98dc-9e6846d46bf1)" data-fill-palette-color="secondary"></rect><mask id="03f0a901-696b-42cf-bb11-a240bbde1046"><g id="SvgjsG5644"><svg viewBox="0 0 260.4913042334081 247.2" height="247.2" width="260.4913042334081"><g><svg viewBox="0 0 332.39957373422817 315.43922308237643" height="247.2" width="260.4913042334081"><g><svg viewBox="0 0 332.39957373422817 315.43922308237643" height="315.43922308237643" width="332.39957373422817"><g id="SvgjsG5643"><svg viewBox="0 0 332.39957373422817 315.43922308237643" height="315.43922308237643" width="332.39957373422817" id="SvgjsSvg5642"><g><rect width="89.7478849082416" height="22.154981908537724" y="298.47694000647135" fill="white"></rect><rect width="89.7478849082416" height="22.154981908537724" y="298.47694000647135" x="242.65168882598658" fill="white"></rect></g><g><svg viewBox="0 0 332.39957373422817 245.67230399999997" height="245.67230399999997" width="332.39957373422817"><g transform="matrix(1,0,0,1,0,0)"><svg width="332.39957373422817" viewBox="0.22 -36.11 49.22 36.379999999999995" height="245.67230399999997" data-palette-color="url(#eca4a1f5-0695-4180-9064-ab9b93b7859d)"></svg></g></svg></g><g transform="matrix(1,0,0,1,89.7478849082416,303.669638839104)"><svg viewBox="0 0 152.90380391774497 11.769584243272437" height="11.769584243272437" width="152.90380391774497"><g transform="matrix(1,0,0,1,8,0)"><svg width="136.90380391774497" viewBox="1.45 -37 436.15000000000003 37.5" height="11.769584243272437" data-palette-color="url(#2b79dfd8-04e2-485b-b123-e9231c4f9d2d)"></svg></g></svg></g></svg></g></svg></g></svg></g><defs><mask></mask></defs><mask><g id="SvgjsG5641"><svg viewBox="0 0 260.4913042334081 247.2" height="247.2" width="260.4913042334081"><g><svg viewBox="0 0 332.39957373422817 315.43922308237643" height="247.2" width="260.4913042334081"><g><svg viewBox="0 0 332.39957373422817 315.43922308237643" height="315.43922308237643" width="332.39957373422817"><g id="SvgjsG5640"><svg viewBox="0 0 332.39957373422817 315.43922308237643" height="315.43922308237643" width="332.39957373422817" id="SvgjsSvg5639"><g><rect width="89.7478849082416" height="22.154981908537724" y="298.47694000647135" fill="black"></rect><rect width="89.7478849082416" height="22.154981908537724" y="298.47694000647135" x="242.65168882598658" fill="black"></rect></g><g><svg viewBox="0 0 332.39957373422817 245.67230399999997" height="245.67230399999997" width="332.39957373422817"><g transform="matrix(1,0,0,1,0,0)"><svg width="332.39957373422817" viewBox="0.22 -36.11 49.22 36.379999999999995" height="245.67230399999997" data-palette-color="url(#eca4a1f5-0695-4180-9064-ab9b93b7859d)"><path d="M17.26-4.35L10.42-4.35Q5.96-4.35 4.32-4.42L4.32-4.42 3.61-2.73Q3.3-2.03 3.03-1.25L3.03-1.25Q2.47 0.27 1.46 0.27L1.46 0.27Q1 0.27 0.71-0.02 0.42-0.32 0.42-0.63L0.42-0.63Q0.42-1.17 0.88-1.83L0.88-1.83Q1.61-2.86 2.32-4.52L2.32-4.52Q0.22-4.71 0.22-5.74 0.22-6.76 1.42-6.76L1.42-6.76Q2.15-6.76 3.13-6.52L3.13-6.52 15.31-36.11 32.01 0 19.29 0 17.26-4.35ZM10.35-19.29L5.1-6.32Q7.45-6.13 9.3-6.13L9.3-6.13 16.46-6.13 10.35-19.29ZM36.98 0L36.98-34.55 49.44-34.55 49.44 0 36.98 0Z" opacity="1" transform="matrix(1,0,0,1,0,0)" fill="black" class="wordmark-text-0" id="SvgjsPath5638"></path></svg></g></svg></g><g transform="matrix(1,0,0,1,89.7478849082416,303.669638839104)"><svg viewBox="0 0 152.90380391774497 11.769584243272437" height="11.769584243272437" width="152.90380391774497"><g transform="matrix(1,0,0,1,8,0)"><svg width="136.90380391774497" viewBox="1.45 -37 436.15000000000003 37.5" height="11.769584243272437" data-palette-color="url(#2b79dfd8-04e2-485b-b123-e9231c4f9d2d)"><path d="M13.2-36.8L13.2-36.8Q13.95-36.8 14.83-36.65 15.7-36.5 16.35-36.13 17-35.75 17-35L17-35Q17-34.45 16.6-34.02 16.2-33.6 15.7-33.6L15.7-33.6Q15.2-33.6 14.45-33.88 13.7-34.15 12.85-34.15L12.85-34.15Q11.8-34.15 11.05-33.68 10.3-33.2 9.9-32.33 9.5-31.45 9.5-30.2L9.5-30.2 9.5-1.5Q9.5-0.9 9.08-0.45 8.65 0 8 0L8 0Q7.35 0 6.93-0.45 6.5-0.9 6.5-1.5L6.5-1.5 6.5-30.2Q6.5-33.4 8.38-35.1 10.25-36.8 13.2-36.8ZM2.85-25.05L15.1-25.05Q15.7-25.05 16.1-24.65 16.5-24.25 16.5-23.65L16.5-23.65Q16.5-23.05 16.1-22.65 15.7-22.25 15.1-22.25L15.1-22.25 2.85-22.25Q2.3-22.25 1.88-22.68 1.45-23.1 1.45-23.65L1.45-23.65Q1.45-24.3 1.88-24.68 2.3-25.05 2.85-25.05L2.85-25.05ZM24.5-24.5L24.5-1.5Q24.5-0.9 24.05-0.45 23.6 0 23 0L23 0Q22.35 0 21.92-0.45 21.5-0.9 21.5-1.5L21.5-1.5 21.5-24.5Q21.5-25.1 21.92-25.55 22.35-26 23-26L23-26Q23.65-26 24.07-25.55 24.5-25.1 24.5-24.5L24.5-24.5ZM23-29.35L23-29.35Q21.95-29.35 21.42-29.83 20.9-30.3 20.9-31.2L20.9-31.2 20.9-31.7Q20.9-32.6 21.47-33.08 22.05-33.55 23.05-33.55L23.05-33.55Q24-33.55 24.52-33.08 25.05-32.6 25.05-31.7L25.05-31.7 25.05-31.2Q25.05-30.3 24.52-29.83 24-29.35 23-29.35ZM44.34-26.15L44.34-26.15Q47.65-26.15 49.62-24.83 51.59-23.5 52.47-21.23 53.34-18.95 53.34-16.2L53.34-16.2 53.34-1.5Q53.34-0.9 52.9-0.45 52.45 0 51.84 0L51.84 0Q51.15 0 50.75-0.45 50.34-0.9 50.34-1.5L50.34-1.5 50.34-16.05Q50.34-18.05 49.7-19.7 49.05-21.35 47.57-22.35 46.09-23.35 43.7-23.35L43.7-23.35Q41.55-23.35 39.62-22.35 37.7-21.35 36.5-19.7 35.3-18.05 35.3-16.05L35.3-16.05 35.3-1.5Q35.3-0.9 34.84-0.45 34.4 0 33.8 0L33.8 0Q33.09 0 32.7-0.45 32.3-0.9 32.3-1.5L32.3-1.5 32.3-23.9Q32.3-24.5 32.72-24.95 33.15-25.4 33.8-25.4L33.8-25.4Q34.45-25.4 34.87-24.95 35.3-24.5 35.3-23.9L35.3-23.9 35.3-19.7 34.15-17.9Q34.25-19.5 35.17-20.98 36.09-22.45 37.55-23.63 39-24.8 40.77-25.48 42.55-26.15 44.34-26.15ZM81.94-37L81.94-37Q82.59-37 83.02-36.58 83.44-36.15 83.44-35.5L83.44-35.5 83.44-1.5Q83.44-0.9 82.99-0.45 82.54 0 81.94 0L81.94 0Q81.24 0 80.84-0.45 80.44-0.9 80.44-1.5L80.44-1.5 80.44-7.45 81.29-8.15Q81.29-6.75 80.54-5.23 79.79-3.7 78.42-2.4 77.04-1.1 75.22-0.3 73.39 0.5 71.24 0.5L71.24 0.5Q67.94 0.5 65.27-1.25 62.59-3 61.04-6 59.49-9 59.49-12.85L59.49-12.85Q59.49-16.65 61.04-19.68 62.59-22.7 65.24-24.43 67.89-26.15 71.19-26.15L71.19-26.15Q73.29-26.15 75.14-25.4 76.99-24.65 78.42-23.35 79.84-22.05 80.67-20.38 81.49-18.7 81.49-16.9L81.49-16.9 80.44-17.65 80.44-35.5Q80.44-36.1 80.84-36.55 81.24-37 81.94-37ZM71.54-2.3L71.54-2.3Q74.19-2.3 76.24-3.68 78.29-5.05 79.47-7.43 80.64-9.8 80.64-12.85L80.64-12.85Q80.64-15.85 79.47-18.23 78.29-20.6 76.24-21.98 74.19-23.35 71.54-23.35L71.54-23.35Q68.94-23.35 66.87-21.98 64.79-20.6 63.62-18.23 62.44-15.85 62.44-12.85L62.44-12.85Q62.44-9.85 63.62-7.45 64.79-5.05 66.87-3.68 68.94-2.3 71.54-2.3ZM103.29-25.45L103.29-25.45 114.94-25.45Q115.54-25.45 115.94-25.03 116.34-24.6 116.34-24L116.34-24Q116.34-23.45 115.94-23.05 115.54-22.65 114.94-22.65L114.94-22.65 103.29-22.65Q102.69-22.65 102.26-23.08 101.84-23.5 101.84-24.05L101.84-24.05Q101.84-24.65 102.26-25.05 102.69-25.45 103.29-25.45ZM108.44-32.5L108.44-32.5Q109.09-32.5 109.51-32.05 109.94-31.6 109.94-31L109.94-31 109.94-5.9Q109.94-4.5 110.31-3.8 110.69-3.1 111.29-2.88 111.89-2.65 112.49-2.65L112.49-2.65Q112.89-2.65 113.21-2.78 113.54-2.9 113.94-2.9L113.94-2.9Q114.39-2.9 114.71-2.55 115.04-2.2 115.04-1.65L115.04-1.65Q115.04-0.95 114.24-0.48 113.44 0 112.34 0L112.34 0Q111.89 0 110.99-0.08 110.09-0.15 109.14-0.63 108.19-1.1 107.56-2.3 106.94-3.5 106.94-5.75L106.94-5.75 106.94-31Q106.94-31.6 107.36-32.05 107.79-32.5 108.44-32.5ZM133.54-25.75L133.54-25.75Q136.69-25.75 138.64-24.4 140.59-23.05 141.51-20.75 142.44-18.45 142.44-15.65L142.44-15.65 142.44-1.5Q142.44-0.9 141.99-0.45 141.54 0 140.94 0L140.94 0Q140.24 0 139.84-0.45 139.44-0.9 139.44-1.5L139.44-1.5 139.44-15.65Q139.44-17.7 138.81-19.35 138.19-21 136.79-21.98 135.39-22.95 133.04-22.95L133.04-22.95Q130.94-22.95 129.06-21.98 127.19-21 126.04-19.35 124.89-17.7 124.89-15.65L124.89-15.65 124.89-1.5Q124.89-0.9 124.44-0.45 123.99 0 123.39 0L123.39 0Q122.69 0 122.29-0.45 121.89-0.9 121.89-1.5L121.89-1.5 121.89-35.5Q121.89-36.1 122.31-36.55 122.74-37 123.39-37L123.39-37Q124.04-37 124.46-36.55 124.89-36.1 124.89-35.5L124.89-35.5 124.89-19.3 123.74-17.55Q123.84-19.1 124.71-20.58 125.59-22.05 126.99-23.23 128.39-24.4 130.09-25.08 131.79-25.75 133.54-25.75ZM161.63 0.5L161.63 0.5Q157.78 0.5 154.83-1.15 151.88-2.8 150.23-5.75 148.58-8.7 148.58-12.65L148.58-12.65Q148.58-16.9 150.26-19.9 151.93-22.9 154.61-24.53 157.28-26.15 160.28-26.15L160.28-26.15Q162.48-26.15 164.56-25.38 166.63-24.6 168.23-23.08 169.83-21.55 170.83-19.35 171.83-17.15 171.88-14.25L171.88-14.25Q171.88-13.65 171.43-13.23 170.98-12.8 170.38-12.8L170.38-12.8 150.33-12.8 149.73-15.5 169.43-15.5 168.78-14.9 168.78-15.9Q168.53-18.25 167.23-19.9 165.93-21.55 164.11-22.4 162.28-23.25 160.28-23.25L160.28-23.25Q158.78-23.25 157.21-22.65 155.63-22.05 154.36-20.78 153.08-19.5 152.28-17.53 151.48-15.55 151.48-12.85L151.48-12.85Q151.48-9.9 152.68-7.5 153.88-5.1 156.13-3.7 158.38-2.3 161.58-2.3L161.58-2.3Q163.28-2.3 164.68-2.8 166.08-3.3 167.16-4.13 168.23-4.95 168.93-5.85L168.93-5.85Q169.48-6.3 169.98-6.3L169.98-6.3Q170.53-6.3 170.91-5.9 171.28-5.5 171.28-5L171.28-5Q171.28-4.4 170.78-3.95L170.78-3.95Q169.28-2.15 166.88-0.83 164.48 0.5 161.63 0.5ZM203.88-26.15L203.88-26.15Q207.28-26.15 209.9-24.45 212.53-22.75 214.08-19.78 215.63-16.8 215.63-12.9L215.63-12.9Q215.63-9.1 214.08-6.05 212.53-3 209.88-1.25 207.23 0.5 203.93 0.5L203.93 0.5Q202.18 0.5 200.6-0.05 199.03-0.6 197.73-1.53 196.43-2.45 195.43-3.7 194.43-4.95 193.83-6.4L193.83-6.4 194.73-7.05 194.73-1.4Q194.73-0.75 194.3-0.33 193.88 0.1 193.23 0.1L193.23 0.1Q192.58 0.1 192.15-0.33 191.73-0.75 191.73-1.4L191.73-1.4 191.73-35.45Q191.73-36.1 192.13-36.52 192.53-36.95 193.23-36.95L193.23-36.95Q193.88-36.95 194.3-36.52 194.73-36.1 194.73-35.45L194.73-35.45 194.73-18.7 194.03-19.1Q194.53-20.65 195.5-21.93 196.48-23.2 197.78-24.15 199.08-25.1 200.63-25.63 202.18-26.15 203.88-26.15ZM203.63-23.35L203.63-23.35Q200.93-23.35 198.88-22 196.83-20.65 195.65-18.3 194.48-15.95 194.48-12.9L194.48-12.9Q194.48-9.9 195.65-7.48 196.83-5.05 198.88-3.68 200.93-2.3 203.63-2.3L203.63-2.3Q206.28-2.3 208.3-3.7 210.33-5.1 211.53-7.53 212.73-9.95 212.73-12.9L212.73-12.9Q212.73-15.95 211.53-18.3 210.33-20.65 208.3-22 206.28-23.35 203.63-23.35ZM233.18 0.5L233.18 0.5Q229.33 0.5 226.38-1.15 223.43-2.8 221.78-5.75 220.13-8.7 220.13-12.65L220.13-12.65Q220.13-16.9 221.8-19.9 223.48-22.9 226.15-24.53 228.83-26.15 231.83-26.15L231.83-26.15Q234.03-26.15 236.1-25.38 238.18-24.6 239.78-23.08 241.38-21.55 242.38-19.35 243.38-17.15 243.43-14.25L243.43-14.25Q243.43-13.65 242.98-13.23 242.53-12.8 241.93-12.8L241.93-12.8 221.88-12.8 221.28-15.5 240.98-15.5 240.33-14.9 240.33-15.9Q240.08-18.25 238.78-19.9 237.48-21.55 235.65-22.4 233.83-23.25 231.83-23.25L231.83-23.25Q230.33-23.25 228.75-22.65 227.18-22.05 225.9-20.78 224.63-19.5 223.83-17.53 223.03-15.55 223.03-12.85L223.03-12.85Q223.03-9.9 224.23-7.5 225.43-5.1 227.68-3.7 229.93-2.3 233.13-2.3L233.13-2.3Q234.83-2.3 236.23-2.8 237.63-3.3 238.7-4.13 239.78-4.95 240.48-5.85L240.48-5.85Q241.03-6.3 241.53-6.3L241.53-6.3Q242.08-6.3 242.45-5.9 242.83-5.5 242.83-5L242.83-5Q242.83-4.4 242.33-3.95L242.33-3.95Q240.83-2.15 238.43-0.83 236.03 0.5 233.18 0.5ZM248.17-4.05L248.17-4.05Q247.77-4.65 247.8-5.23 247.82-5.8 248.42-6.15L248.42-6.15Q248.82-6.5 249.35-6.45 249.87-6.4 250.32-5.95L250.32-5.95Q251.67-4.2 253.6-3.13 255.52-2.05 258.17-2.05L258.17-2.05Q259.57-2.05 260.95-2.53 262.32-3 263.22-3.98 264.12-4.95 264.12-6.45L264.12-6.45Q264.12-8 263.22-8.95 262.32-9.9 260.9-10.45 259.47-11 257.87-11.4L257.87-11.4Q256.17-11.85 254.57-12.43 252.97-13 251.75-13.88 250.52-14.75 249.77-16 249.02-17.25 249.02-19.05L249.02-19.05Q249.02-21.15 250.17-22.75 251.32-24.35 253.3-25.25 255.27-26.15 257.77-26.15L257.77-26.15Q259.02-26.15 260.47-25.83 261.92-25.5 263.32-24.75 264.72-24 265.82-22.7L265.82-22.7Q266.27-22.25 266.27-21.68 266.27-21.1 265.77-20.65L265.77-20.65Q265.37-20.35 264.85-20.35 264.32-20.35 263.97-20.75L263.97-20.75Q262.77-22.1 261.12-22.8 259.47-23.5 257.57-23.5L257.57-23.5Q256.12-23.5 254.85-23.03 253.57-22.55 252.72-21.6 251.87-20.65 251.87-19.1L251.87-19.1Q251.97-17.65 252.9-16.75 253.82-15.85 255.35-15.25 256.87-14.65 258.77-14.15L258.77-14.15Q260.37-13.75 261.85-13.2 263.32-12.65 264.45-11.83 265.57-11 266.25-9.75 266.92-8.5 266.92-6.6L266.92-6.6Q266.92-4.4 265.7-2.8 264.47-1.2 262.42-0.35 260.37 0.5 257.87 0.5L257.87 0.5Q255.17 0.5 252.65-0.55 250.12-1.6 248.17-4.05ZM271.42-25.45L271.42-25.45 283.07-25.45Q283.67-25.45 284.07-25.03 284.47-24.6 284.47-24L284.47-24Q284.47-23.45 284.07-23.05 283.67-22.65 283.07-22.65L283.07-22.65 271.42-22.65Q270.82-22.65 270.4-23.08 269.97-23.5 269.97-24.05L269.97-24.05Q269.97-24.65 270.4-25.05 270.82-25.45 271.42-25.45ZM276.57-32.5L276.57-32.5Q277.22-32.5 277.65-32.05 278.07-31.6 278.07-31L278.07-31 278.07-5.9Q278.07-4.5 278.45-3.8 278.82-3.1 279.42-2.88 280.02-2.65 280.62-2.65L280.62-2.65Q281.02-2.65 281.35-2.78 281.67-2.9 282.07-2.9L282.07-2.9Q282.52-2.9 282.85-2.55 283.17-2.2 283.17-1.65L283.17-1.65Q283.17-0.95 282.37-0.48 281.57 0 280.47 0L280.47 0Q280.02 0 279.12-0.08 278.22-0.15 277.27-0.63 276.32-1.1 275.7-2.3 275.07-3.5 275.07-5.75L275.07-5.75 275.07-31Q275.07-31.6 275.5-32.05 275.92-32.5 276.57-32.5ZM324.42-25.55L324.42-25.55Q325.07-25.55 325.49-25.1 325.92-24.65 325.92-24L325.92-24 325.92-1.5Q325.92-0.9 325.47-0.45 325.02 0 324.42 0L324.42 0Q323.72 0 323.32-0.45 322.92-0.9 322.92-1.5L322.92-1.5 322.92-7.45 323.77-7.85Q323.77-6.45 322.99-5 322.22-3.55 320.87-2.3 319.52-1.05 317.69-0.28 315.87 0.5 313.72 0.5L313.72 0.5Q310.37 0.5 307.69-1.25 305.02-3 303.49-6.05 301.97-9.1 301.97-12.9L301.97-12.9Q301.97-16.8 303.52-19.78 305.07-22.75 307.72-24.45 310.37-26.15 313.67-26.15L313.67-26.15Q315.82-26.15 317.69-25.4 319.57-24.65 320.97-23.35 322.37-22.05 323.17-20.38 323.97-18.7 323.97-16.9L323.97-16.9 322.92-17.65 322.92-24Q322.92-24.65 323.32-25.1 323.72-25.55 324.42-25.55ZM314.02-2.3L314.02-2.3Q316.67-2.3 318.72-3.68 320.77-5.05 321.94-7.48 323.12-9.9 323.12-12.9L323.12-12.9Q323.12-15.85 321.94-18.2 320.77-20.55 318.72-21.95 316.67-23.35 314.02-23.35L314.02-23.35Q311.42-23.35 309.34-22 307.27-20.65 306.09-18.3 304.92-15.95 304.92-12.9L304.92-12.9Q304.92-9.9 306.07-7.48 307.22-5.05 309.29-3.68 311.37-2.3 314.02-2.3ZM336.66-24.5L336.66-1.5Q336.66-0.9 336.21-0.45 335.76 0 335.16 0L335.16 0Q334.51 0 334.09-0.45 333.66-0.9 333.66-1.5L333.66-1.5 333.66-24.5Q333.66-25.1 334.09-25.55 334.51-26 335.16-26L335.16-26Q335.81-26 336.24-25.55 336.66-25.1 336.66-24.5L336.66-24.5ZM335.16-29.35L335.16-29.35Q334.11-29.35 333.59-29.83 333.06-30.3 333.06-31.2L333.06-31.2 333.06-31.7Q333.06-32.6 333.64-33.08 334.21-33.55 335.21-33.55L335.21-33.55Q336.16-33.55 336.69-33.08 337.21-32.6 337.21-31.7L337.21-31.7 337.21-31.2Q337.21-30.3 336.69-29.83 336.16-29.35 335.16-29.35ZM356.46-25.45L356.46-25.45 368.11-25.45Q368.71-25.45 369.11-25.03 369.51-24.6 369.51-24L369.51-24Q369.51-23.45 369.11-23.05 368.71-22.65 368.11-22.65L368.11-22.65 356.46-22.65Q355.86-22.65 355.43-23.08 355.01-23.5 355.01-24.05L355.01-24.05Q355.01-24.65 355.43-25.05 355.86-25.45 356.46-25.45ZM361.61-32.5L361.61-32.5Q362.26-32.5 362.68-32.05 363.11-31.6 363.11-31L363.11-31 363.11-5.9Q363.11-4.5 363.48-3.8 363.86-3.1 364.46-2.88 365.06-2.65 365.66-2.65L365.66-2.65Q366.06-2.65 366.38-2.78 366.71-2.9 367.11-2.9L367.11-2.9Q367.56-2.9 367.88-2.55 368.21-2.2 368.21-1.65L368.21-1.65Q368.21-0.95 367.41-0.48 366.61 0 365.51 0L365.51 0Q365.06 0 364.16-0.08 363.26-0.15 362.31-0.63 361.36-1.1 360.73-2.3 360.11-3.5 360.11-5.75L360.11-5.75 360.11-31Q360.11-31.6 360.53-32.05 360.96-32.5 361.61-32.5ZM398.41-12.8L398.41-12.8Q398.41-9 396.73-5.98 395.06-2.95 392.21-1.23 389.36 0.5 385.75 0.5L385.75 0.5Q382.21 0.5 379.33-1.23 376.46-2.95 374.78-5.98 373.11-9 373.11-12.8L373.11-12.8Q373.11-16.65 374.78-19.65 376.46-22.65 379.33-24.4 382.21-26.15 385.75-26.15L385.75-26.15Q389.36-26.15 392.21-24.4 395.06-22.65 396.73-19.65 398.41-16.65 398.41-12.8ZM395.41-12.8L395.41-12.8Q395.41-15.85 394.16-18.23 392.91-20.6 390.73-21.98 388.56-23.35 385.75-23.35L385.75-23.35Q383-23.35 380.83-21.98 378.66-20.6 377.38-18.23 376.11-15.85 376.11-12.8L376.11-12.8Q376.11-9.75 377.38-7.4 378.66-5.05 380.83-3.68 383-2.3 385.75-2.3L385.75-2.3Q388.56-2.3 390.73-3.68 392.91-5.05 394.16-7.4 395.41-9.75 395.41-12.8ZM428.15-12.8L428.15-12.8Q428.15-9 426.48-5.98 424.8-2.95 421.95-1.23 419.1 0.5 415.5 0.5L415.5 0.5Q411.95 0.5 409.08-1.23 406.2-2.95 404.53-5.98 402.85-9 402.85-12.8L402.85-12.8Q402.85-16.65 404.53-19.65 406.2-22.65 409.08-24.4 411.95-26.15 415.5-26.15L415.5-26.15Q419.1-26.15 421.95-24.4 424.8-22.65 426.48-19.65 428.15-16.65 428.15-12.8ZM425.15-12.8L425.15-12.8Q425.15-15.85 423.9-18.23 422.65-20.6 420.48-21.98 418.3-23.35 415.5-23.35L415.5-23.35Q412.75-23.35 410.58-21.98 408.4-20.6 407.13-18.23 405.85-15.85 405.85-12.8L405.85-12.8Q405.85-9.75 407.13-7.4 408.4-5.05 410.58-3.68 412.75-2.3 415.5-2.3L415.5-2.3Q418.3-2.3 420.48-3.68 422.65-5.05 423.9-7.4 425.15-9.75 425.15-12.8ZM437.6-35.5L437.6-1.5Q437.6-0.9 437.15-0.45 436.7 0 436.1 0L436.1 0Q435.45 0 435.03-0.45 434.6-0.9 434.6-1.5L434.6-1.5 434.6-35.5Q434.6-36.1 435.05-36.55 435.5-37 436.1-37L436.1-37Q436.75-37 437.18-36.55 437.6-36.1 437.6-35.5L437.6-35.5Z" opacity="1" transform="matrix(1,0,0,1,0,0)" fill="black" class="slogan-text-1" id="SvgjsPath5637"></path></svg></g></svg></g></svg></g></svg></g></svg></g><defs><mask></mask></defs></svg><rect width="260.4913042334081" height="247.2" fill="black" stroke="none" visibility="hidden"></rect></g></mask><mask><g id="SvgjsG5636"><svg viewBox="0 0 260.4913042334081 247.2" height="247.2" width="260.4913042334081"><g><svg viewBox="0 0 332.39957373422817 315.43922308237643" height="247.2" width="260.4913042334081"><g><svg viewBox="0 0 332.39957373422817 315.43922308237643" height="315.43922308237643" width="332.39957373422817"><g id="SvgjsG5635"><svg viewBox="0 0 332.39957373422817 315.43922308237643" height="315.43922308237643" width="332.39957373422817" id="SvgjsSvg5634"><g><rect width="89.7478849082416" height="22.154981908537724" y="298.47694000647135" fill="black"></rect><rect width="89.7478849082416" height="22.154981908537724" y="298.47694000647135" x="242.65168882598658" fill="black"></rect></g><g><svg viewBox="0 0 332.39957373422817 245.67230399999997" height="245.67230399999997" width="332.39957373422817"><g transform="matrix(1,0,0,1,0,0)"><svg width="332.39957373422817" viewBox="0.22 -36.11 49.22 36.379999999999995" height="245.67230399999997" data-palette-color="url(#eca4a1f5-0695-4180-9064-ab9b93b7859d)"></svg></g></svg></g><g transform="matrix(1,0,0,1,89.7478849082416,303.669638839104)"><svg viewBox="0 0 152.90380391774497 11.769584243272437" height="11.769584243272437" width="152.90380391774497"><g transform="matrix(1,0,0,1,8,0)"><svg width="136.90380391774497" viewBox="1.45 -37 436.15000000000003 37.5" height="11.769584243272437" data-palette-color="url(#2b79dfd8-04e2-485b-b123-e9231c4f9d2d)"><path d="M13.2-36.8L13.2-36.8Q13.95-36.8 14.83-36.65 15.7-36.5 16.35-36.13 17-35.75 17-35L17-35Q17-34.45 16.6-34.02 16.2-33.6 15.7-33.6L15.7-33.6Q15.2-33.6 14.45-33.88 13.7-34.15 12.85-34.15L12.85-34.15Q11.8-34.15 11.05-33.68 10.3-33.2 9.9-32.33 9.5-31.45 9.5-30.2L9.5-30.2 9.5-1.5Q9.5-0.9 9.08-0.45 8.65 0 8 0L8 0Q7.35 0 6.93-0.45 6.5-0.9 6.5-1.5L6.5-1.5 6.5-30.2Q6.5-33.4 8.38-35.1 10.25-36.8 13.2-36.8ZM2.85-25.05L15.1-25.05Q15.7-25.05 16.1-24.65 16.5-24.25 16.5-23.65L16.5-23.65Q16.5-23.05 16.1-22.65 15.7-22.25 15.1-22.25L15.1-22.25 2.85-22.25Q2.3-22.25 1.88-22.68 1.45-23.1 1.45-23.65L1.45-23.65Q1.45-24.3 1.88-24.68 2.3-25.05 2.85-25.05L2.85-25.05ZM24.5-24.5L24.5-1.5Q24.5-0.9 24.05-0.45 23.6 0 23 0L23 0Q22.35 0 21.92-0.45 21.5-0.9 21.5-1.5L21.5-1.5 21.5-24.5Q21.5-25.1 21.92-25.55 22.35-26 23-26L23-26Q23.65-26 24.07-25.55 24.5-25.1 24.5-24.5L24.5-24.5ZM23-29.35L23-29.35Q21.95-29.35 21.42-29.83 20.9-30.3 20.9-31.2L20.9-31.2 20.9-31.7Q20.9-32.6 21.47-33.08 22.05-33.55 23.05-33.55L23.05-33.55Q24-33.55 24.52-33.08 25.05-32.6 25.05-31.7L25.05-31.7 25.05-31.2Q25.05-30.3 24.52-29.83 24-29.35 23-29.35ZM44.34-26.15L44.34-26.15Q47.65-26.15 49.62-24.83 51.59-23.5 52.47-21.23 53.34-18.95 53.34-16.2L53.34-16.2 53.34-1.5Q53.34-0.9 52.9-0.45 52.45 0 51.84 0L51.84 0Q51.15 0 50.75-0.45 50.34-0.9 50.34-1.5L50.34-1.5 50.34-16.05Q50.34-18.05 49.7-19.7 49.05-21.35 47.57-22.35 46.09-23.35 43.7-23.35L43.7-23.35Q41.55-23.35 39.62-22.35 37.7-21.35 36.5-19.7 35.3-18.05 35.3-16.05L35.3-16.05 35.3-1.5Q35.3-0.9 34.84-0.45 34.4 0 33.8 0L33.8 0Q33.09 0 32.7-0.45 32.3-0.9 32.3-1.5L32.3-1.5 32.3-23.9Q32.3-24.5 32.72-24.95 33.15-25.4 33.8-25.4L33.8-25.4Q34.45-25.4 34.87-24.95 35.3-24.5 35.3-23.9L35.3-23.9 35.3-19.7 34.15-17.9Q34.25-19.5 35.17-20.98 36.09-22.45 37.55-23.63 39-24.8 40.77-25.48 42.55-26.15 44.34-26.15ZM81.94-37L81.94-37Q82.59-37 83.02-36.58 83.44-36.15 83.44-35.5L83.44-35.5 83.44-1.5Q83.44-0.9 82.99-0.45 82.54 0 81.94 0L81.94 0Q81.24 0 80.84-0.45 80.44-0.9 80.44-1.5L80.44-1.5 80.44-7.45 81.29-8.15Q81.29-6.75 80.54-5.23 79.79-3.7 78.42-2.4 77.04-1.1 75.22-0.3 73.39 0.5 71.24 0.5L71.24 0.5Q67.94 0.5 65.27-1.25 62.59-3 61.04-6 59.49-9 59.49-12.85L59.49-12.85Q59.49-16.65 61.04-19.68 62.59-22.7 65.24-24.43 67.89-26.15 71.19-26.15L71.19-26.15Q73.29-26.15 75.14-25.4 76.99-24.65 78.42-23.35 79.84-22.05 80.67-20.38 81.49-18.7 81.49-16.9L81.49-16.9 80.44-17.65 80.44-35.5Q80.44-36.1 80.84-36.55 81.24-37 81.94-37ZM71.54-2.3L71.54-2.3Q74.19-2.3 76.24-3.68 78.29-5.05 79.47-7.43 80.64-9.8 80.64-12.85L80.64-12.85Q80.64-15.85 79.47-18.23 78.29-20.6 76.24-21.98 74.19-23.35 71.54-23.35L71.54-23.35Q68.94-23.35 66.87-21.98 64.79-20.6 63.62-18.23 62.44-15.85 62.44-12.85L62.44-12.85Q62.44-9.85 63.62-7.45 64.79-5.05 66.87-3.68 68.94-2.3 71.54-2.3ZM103.29-25.45L103.29-25.45 114.94-25.45Q115.54-25.45 115.94-25.03 116.34-24.6 116.34-24L116.34-24Q116.34-23.45 115.94-23.05 115.54-22.65 114.94-22.65L114.94-22.65 103.29-22.65Q102.69-22.65 102.26-23.08 101.84-23.5 101.84-24.05L101.84-24.05Q101.84-24.65 102.26-25.05 102.69-25.45 103.29-25.45ZM108.44-32.5L108.44-32.5Q109.09-32.5 109.51-32.05 109.94-31.6 109.94-31L109.94-31 109.94-5.9Q109.94-4.5 110.31-3.8 110.69-3.1 111.29-2.88 111.89-2.65 112.49-2.65L112.49-2.65Q112.89-2.65 113.21-2.78 113.54-2.9 113.94-2.9L113.94-2.9Q114.39-2.9 114.71-2.55 115.04-2.2 115.04-1.65L115.04-1.65Q115.04-0.95 114.24-0.48 113.44 0 112.34 0L112.34 0Q111.89 0 110.99-0.08 110.09-0.15 109.14-0.63 108.19-1.1 107.56-2.3 106.94-3.5 106.94-5.75L106.94-5.75 106.94-31Q106.94-31.6 107.36-32.05 107.79-32.5 108.44-32.5ZM133.54-25.75L133.54-25.75Q136.69-25.75 138.64-24.4 140.59-23.05 141.51-20.75 142.44-18.45 142.44-15.65L142.44-15.65 142.44-1.5Q142.44-0.9 141.99-0.45 141.54 0 140.94 0L140.94 0Q140.24 0 139.84-0.45 139.44-0.9 139.44-1.5L139.44-1.5 139.44-15.65Q139.44-17.7 138.81-19.35 138.19-21 136.79-21.98 135.39-22.95 133.04-22.95L133.04-22.95Q130.94-22.95 129.06-21.98 127.19-21 126.04-19.35 124.89-17.7 124.89-15.65L124.89-15.65 124.89-1.5Q124.89-0.9 124.44-0.45 123.99 0 123.39 0L123.39 0Q122.69 0 122.29-0.45 121.89-0.9 121.89-1.5L121.89-1.5 121.89-35.5Q121.89-36.1 122.31-36.55 122.74-37 123.39-37L123.39-37Q124.04-37 124.46-36.55 124.89-36.1 124.89-35.5L124.89-35.5 124.89-19.3 123.74-17.55Q123.84-19.1 124.71-20.58 125.59-22.05 126.99-23.23 128.39-24.4 130.09-25.08 131.79-25.75 133.54-25.75ZM161.63 0.5L161.63 0.5Q157.78 0.5 154.83-1.15 151.88-2.8 150.23-5.75 148.58-8.7 148.58-12.65L148.58-12.65Q148.58-16.9 150.26-19.9 151.93-22.9 154.61-24.53 157.28-26.15 160.28-26.15L160.28-26.15Q162.48-26.15 164.56-25.38 166.63-24.6 168.23-23.08 169.83-21.55 170.83-19.35 171.83-17.15 171.88-14.25L171.88-14.25Q171.88-13.65 171.43-13.23 170.98-12.8 170.38-12.8L170.38-12.8 150.33-12.8 149.73-15.5 169.43-15.5 168.78-14.9 168.78-15.9Q168.53-18.25 167.23-19.9 165.93-21.55 164.11-22.4 162.28-23.25 160.28-23.25L160.28-23.25Q158.78-23.25 157.21-22.65 155.63-22.05 154.36-20.78 153.08-19.5 152.28-17.53 151.48-15.55 151.48-12.85L151.48-12.85Q151.48-9.9 152.68-7.5 153.88-5.1 156.13-3.7 158.38-2.3 161.58-2.3L161.58-2.3Q163.28-2.3 164.68-2.8 166.08-3.3 167.16-4.13 168.23-4.95 168.93-5.85L168.93-5.85Q169.48-6.3 169.98-6.3L169.98-6.3Q170.53-6.3 170.91-5.9 171.28-5.5 171.28-5L171.28-5Q171.28-4.4 170.78-3.95L170.78-3.95Q169.28-2.15 166.88-0.83 164.48 0.5 161.63 0.5ZM203.88-26.15L203.88-26.15Q207.28-26.15 209.9-24.45 212.53-22.75 214.08-19.78 215.63-16.8 215.63-12.9L215.63-12.9Q215.63-9.1 214.08-6.05 212.53-3 209.88-1.25 207.23 0.5 203.93 0.5L203.93 0.5Q202.18 0.5 200.6-0.05 199.03-0.6 197.73-1.53 196.43-2.45 195.43-3.7 194.43-4.95 193.83-6.4L193.83-6.4 194.73-7.05 194.73-1.4Q194.73-0.75 194.3-0.33 193.88 0.1 193.23 0.1L193.23 0.1Q192.58 0.1 192.15-0.33 191.73-0.75 191.73-1.4L191.73-1.4 191.73-35.45Q191.73-36.1 192.13-36.52 192.53-36.95 193.23-36.95L193.23-36.95Q193.88-36.95 194.3-36.52 194.73-36.1 194.73-35.45L194.73-35.45 194.73-18.7 194.03-19.1Q194.53-20.65 195.5-21.93 196.48-23.2 197.78-24.15 199.08-25.1 200.63-25.63 202.18-26.15 203.88-26.15ZM203.63-23.35L203.63-23.35Q200.93-23.35 198.88-22 196.83-20.65 195.65-18.3 194.48-15.95 194.48-12.9L194.48-12.9Q194.48-9.9 195.65-7.48 196.83-5.05 198.88-3.68 200.93-2.3 203.63-2.3L203.63-2.3Q206.28-2.3 208.3-3.7 210.33-5.1 211.53-7.53 212.73-9.95 212.73-12.9L212.73-12.9Q212.73-15.95 211.53-18.3 210.33-20.65 208.3-22 206.28-23.35 203.63-23.35ZM233.18 0.5L233.18 0.5Q229.33 0.5 226.38-1.15 223.43-2.8 221.78-5.75 220.13-8.7 220.13-12.65L220.13-12.65Q220.13-16.9 221.8-19.9 223.48-22.9 226.15-24.53 228.83-26.15 231.83-26.15L231.83-26.15Q234.03-26.15 236.1-25.38 238.18-24.6 239.78-23.08 241.38-21.55 242.38-19.35 243.38-17.15 243.43-14.25L243.43-14.25Q243.43-13.65 242.98-13.23 242.53-12.8 241.93-12.8L241.93-12.8 221.88-12.8 221.28-15.5 240.98-15.5 240.33-14.9 240.33-15.9Q240.08-18.25 238.78-19.9 237.48-21.55 235.65-22.4 233.83-23.25 231.83-23.25L231.83-23.25Q230.33-23.25 228.75-22.65 227.18-22.05 225.9-20.78 224.63-19.5 223.83-17.53 223.03-15.55 223.03-12.85L223.03-12.85Q223.03-9.9 224.23-7.5 225.43-5.1 227.68-3.7 229.93-2.3 233.13-2.3L233.13-2.3Q234.83-2.3 236.23-2.8 237.63-3.3 238.7-4.13 239.78-4.95 240.48-5.85L240.48-5.85Q241.03-6.3 241.53-6.3L241.53-6.3Q242.08-6.3 242.45-5.9 242.83-5.5 242.83-5L242.83-5Q242.83-4.4 242.33-3.95L242.33-3.95Q240.83-2.15 238.43-0.83 236.03 0.5 233.18 0.5ZM248.17-4.05L248.17-4.05Q247.77-4.65 247.8-5.23 247.82-5.8 248.42-6.15L248.42-6.15Q248.82-6.5 249.35-6.45 249.87-6.4 250.32-5.95L250.32-5.95Q251.67-4.2 253.6-3.13 255.52-2.05 258.17-2.05L258.17-2.05Q259.57-2.05 260.95-2.53 262.32-3 263.22-3.98 264.12-4.95 264.12-6.45L264.12-6.45Q264.12-8 263.22-8.95 262.32-9.9 260.9-10.45 259.47-11 257.87-11.4L257.87-11.4Q256.17-11.85 254.57-12.43 252.97-13 251.75-13.88 250.52-14.75 249.77-16 249.02-17.25 249.02-19.05L249.02-19.05Q249.02-21.15 250.17-22.75 251.32-24.35 253.3-25.25 255.27-26.15 257.77-26.15L257.77-26.15Q259.02-26.15 260.47-25.83 261.92-25.5 263.32-24.75 264.72-24 265.82-22.7L265.82-22.7Q266.27-22.25 266.27-21.68 266.27-21.1 265.77-20.65L265.77-20.65Q265.37-20.35 264.85-20.35 264.32-20.35 263.97-20.75L263.97-20.75Q262.77-22.1 261.12-22.8 259.47-23.5 257.57-23.5L257.57-23.5Q256.12-23.5 254.85-23.03 253.57-22.55 252.72-21.6 251.87-20.65 251.87-19.1L251.87-19.1Q251.97-17.65 252.9-16.75 253.82-15.85 255.35-15.25 256.87-14.65 258.77-14.15L258.77-14.15Q260.37-13.75 261.85-13.2 263.32-12.65 264.45-11.83 265.57-11 266.25-9.75 266.92-8.5 266.92-6.6L266.92-6.6Q266.92-4.4 265.7-2.8 264.47-1.2 262.42-0.35 260.37 0.5 257.87 0.5L257.87 0.5Q255.17 0.5 252.65-0.55 250.12-1.6 248.17-4.05ZM271.42-25.45L271.42-25.45 283.07-25.45Q283.67-25.45 284.07-25.03 284.47-24.6 284.47-24L284.47-24Q284.47-23.45 284.07-23.05 283.67-22.65 283.07-22.65L283.07-22.65 271.42-22.65Q270.82-22.65 270.4-23.08 269.97-23.5 269.97-24.05L269.97-24.05Q269.97-24.65 270.4-25.05 270.82-25.45 271.42-25.45ZM276.57-32.5L276.57-32.5Q277.22-32.5 277.65-32.05 278.07-31.6 278.07-31L278.07-31 278.07-5.9Q278.07-4.5 278.45-3.8 278.82-3.1 279.42-2.88 280.02-2.65 280.62-2.65L280.62-2.65Q281.02-2.65 281.35-2.78 281.67-2.9 282.07-2.9L282.07-2.9Q282.52-2.9 282.85-2.55 283.17-2.2 283.17-1.65L283.17-1.65Q283.17-0.95 282.37-0.48 281.57 0 280.47 0L280.47 0Q280.02 0 279.12-0.08 278.22-0.15 277.27-0.63 276.32-1.1 275.7-2.3 275.07-3.5 275.07-5.75L275.07-5.75 275.07-31Q275.07-31.6 275.5-32.05 275.92-32.5 276.57-32.5ZM324.42-25.55L324.42-25.55Q325.07-25.55 325.49-25.1 325.92-24.65 325.92-24L325.92-24 325.92-1.5Q325.92-0.9 325.47-0.45 325.02 0 324.42 0L324.42 0Q323.72 0 323.32-0.45 322.92-0.9 322.92-1.5L322.92-1.5 322.92-7.45 323.77-7.85Q323.77-6.45 322.99-5 322.22-3.55 320.87-2.3 319.52-1.05 317.69-0.28 315.87 0.5 313.72 0.5L313.72 0.5Q310.37 0.5 307.69-1.25 305.02-3 303.49-6.05 301.97-9.1 301.97-12.9L301.97-12.9Q301.97-16.8 303.52-19.78 305.07-22.75 307.72-24.45 310.37-26.15 313.67-26.15L313.67-26.15Q315.82-26.15 317.69-25.4 319.57-24.65 320.97-23.35 322.37-22.05 323.17-20.38 323.97-18.7 323.97-16.9L323.97-16.9 322.92-17.65 322.92-24Q322.92-24.65 323.32-25.1 323.72-25.55 324.42-25.55ZM314.02-2.3L314.02-2.3Q316.67-2.3 318.72-3.68 320.77-5.05 321.94-7.48 323.12-9.9 323.12-12.9L323.12-12.9Q323.12-15.85 321.94-18.2 320.77-20.55 318.72-21.95 316.67-23.35 314.02-23.35L314.02-23.35Q311.42-23.35 309.34-22 307.27-20.65 306.09-18.3 304.92-15.95 304.92-12.9L304.92-12.9Q304.92-9.9 306.07-7.48 307.22-5.05 309.29-3.68 311.37-2.3 314.02-2.3ZM336.66-24.5L336.66-1.5Q336.66-0.9 336.21-0.45 335.76 0 335.16 0L335.16 0Q334.51 0 334.09-0.45 333.66-0.9 333.66-1.5L333.66-1.5 333.66-24.5Q333.66-25.1 334.09-25.55 334.51-26 335.16-26L335.16-26Q335.81-26 336.24-25.55 336.66-25.1 336.66-24.5L336.66-24.5ZM335.16-29.35L335.16-29.35Q334.11-29.35 333.59-29.83 333.06-30.3 333.06-31.2L333.06-31.2 333.06-31.7Q333.06-32.6 333.64-33.08 334.21-33.55 335.21-33.55L335.21-33.55Q336.16-33.55 336.69-33.08 337.21-32.6 337.21-31.7L337.21-31.7 337.21-31.2Q337.21-30.3 336.69-29.83 336.16-29.35 335.16-29.35ZM356.46-25.45L356.46-25.45 368.11-25.45Q368.71-25.45 369.11-25.03 369.51-24.6 369.51-24L369.51-24Q369.51-23.45 369.11-23.05 368.71-22.65 368.11-22.65L368.11-22.65 356.46-22.65Q355.86-22.65 355.43-23.08 355.01-23.5 355.01-24.05L355.01-24.05Q355.01-24.65 355.43-25.05 355.86-25.45 356.46-25.45ZM361.61-32.5L361.61-32.5Q362.26-32.5 362.68-32.05 363.11-31.6 363.11-31L363.11-31 363.11-5.9Q363.11-4.5 363.48-3.8 363.86-3.1 364.46-2.88 365.06-2.65 365.66-2.65L365.66-2.65Q366.06-2.65 366.38-2.78 366.71-2.9 367.11-2.9L367.11-2.9Q367.56-2.9 367.88-2.55 368.21-2.2 368.21-1.65L368.21-1.65Q368.21-0.95 367.41-0.48 366.61 0 365.51 0L365.51 0Q365.06 0 364.16-0.08 363.26-0.15 362.31-0.63 361.36-1.1 360.73-2.3 360.11-3.5 360.11-5.75L360.11-5.75 360.11-31Q360.11-31.6 360.53-32.05 360.96-32.5 361.61-32.5ZM398.41-12.8L398.41-12.8Q398.41-9 396.73-5.98 395.06-2.95 392.21-1.23 389.36 0.5 385.75 0.5L385.75 0.5Q382.21 0.5 379.33-1.23 376.46-2.95 374.78-5.98 373.11-9 373.11-12.8L373.11-12.8Q373.11-16.65 374.78-19.65 376.46-22.65 379.33-24.4 382.21-26.15 385.75-26.15L385.75-26.15Q389.36-26.15 392.21-24.4 395.06-22.65 396.73-19.65 398.41-16.65 398.41-12.8ZM395.41-12.8L395.41-12.8Q395.41-15.85 394.16-18.23 392.91-20.6 390.73-21.98 388.56-23.35 385.75-23.35L385.75-23.35Q383-23.35 380.83-21.98 378.66-20.6 377.38-18.23 376.11-15.85 376.11-12.8L376.11-12.8Q376.11-9.75 377.38-7.4 378.66-5.05 380.83-3.68 383-2.3 385.75-2.3L385.75-2.3Q388.56-2.3 390.73-3.68 392.91-5.05 394.16-7.4 395.41-9.75 395.41-12.8ZM428.15-12.8L428.15-12.8Q428.15-9 426.48-5.98 424.8-2.95 421.95-1.23 419.1 0.5 415.5 0.5L415.5 0.5Q411.95 0.5 409.08-1.23 406.2-2.95 404.53-5.98 402.85-9 402.85-12.8L402.85-12.8Q402.85-16.65 404.53-19.65 406.2-22.65 409.08-24.4 411.95-26.15 415.5-26.15L415.5-26.15Q419.1-26.15 421.95-24.4 424.8-22.65 426.48-19.65 428.15-16.65 428.15-12.8ZM425.15-12.8L425.15-12.8Q425.15-15.85 423.9-18.23 422.65-20.6 420.48-21.98 418.3-23.35 415.5-23.35L415.5-23.35Q412.75-23.35 410.58-21.98 408.4-20.6 407.13-18.23 405.85-15.85 405.85-12.8L405.85-12.8Q405.85-9.75 407.13-7.4 408.4-5.05 410.58-3.68 412.75-2.3 415.5-2.3L415.5-2.3Q418.3-2.3 420.48-3.68 422.65-5.05 423.9-7.4 425.15-9.75 425.15-12.8ZM437.6-35.5L437.6-1.5Q437.6-0.9 437.15-0.45 436.7 0 436.1 0L436.1 0Q435.45 0 435.03-0.45 434.6-0.9 434.6-1.5L434.6-1.5 434.6-35.5Q434.6-36.1 435.05-36.55 435.5-37 436.1-37L436.1-37Q436.75-37 437.18-36.55 437.6-36.1 437.6-35.5L437.6-35.5Z" opacity="1" transform="matrix(1,0,0,1,0,0)" fill="black" class="slogan-text-1" id="SvgjsPath5633"></path></svg></g></svg></g></svg></g></svg></g></svg></g><defs><mask></mask></defs><mask><g id="SvgjsG5632"><svg viewBox="0 0 260.4913042334081 247.2" height="247.2" width="260.4913042334081"><g><svg viewBox="0 0 332.39957373422817 315.43922308237643" height="247.2" width="260.4913042334081"><g><svg viewBox="0 0 332.39957373422817 315.43922308237643" height="315.43922308237643" width="332.39957373422817"><g id="SvgjsG5631"><svg viewBox="0 0 332.39957373422817 315.43922308237643" height="315.43922308237643" width="332.39957373422817" id="SvgjsSvg5630"><g><rect width="89.7478849082416" height="22.154981908537724" y="298.47694000647135" fill="black"></rect><rect width="89.7478849082416" height="22.154981908537724" y="298.47694000647135" x="242.65168882598658" fill="black"></rect></g><g><svg viewBox="0 0 332.39957373422817 245.67230399999997" height="245.67230399999997" width="332.39957373422817"><g transform="matrix(1,0,0,1,0,0)"><svg width="332.39957373422817" viewBox="0.22 -36.11 49.22 36.379999999999995" height="245.67230399999997" data-palette-color="url(#eca4a1f5-0695-4180-9064-ab9b93b7859d)"><path d="M17.26-4.35L10.42-4.35Q5.96-4.35 4.32-4.42L4.32-4.42 3.61-2.73Q3.3-2.03 3.03-1.25L3.03-1.25Q2.47 0.27 1.46 0.27L1.46 0.27Q1 0.27 0.71-0.02 0.42-0.32 0.42-0.63L0.42-0.63Q0.42-1.17 0.88-1.83L0.88-1.83Q1.61-2.86 2.32-4.52L2.32-4.52Q0.22-4.71 0.22-5.74 0.22-6.76 1.42-6.76L1.42-6.76Q2.15-6.76 3.13-6.52L3.13-6.52 15.31-36.11 32.01 0 19.29 0 17.26-4.35ZM10.35-19.29L5.1-6.32Q7.45-6.13 9.3-6.13L9.3-6.13 16.46-6.13 10.35-19.29ZM36.98 0L36.98-34.55 49.44-34.55 49.44 0 36.98 0Z" opacity="1" transform="matrix(1,0,0,1,0,0)" fill="black" class="wordmark-text-0" id="SvgjsPath5629"></path></svg></g></svg></g><g transform="matrix(1,0,0,1,89.7478849082416,303.669638839104)"><svg viewBox="0 0 152.90380391774497 11.769584243272437" height="11.769584243272437" width="152.90380391774497"><g transform="matrix(1,0,0,1,8,0)"><svg width="136.90380391774497" viewBox="1.45 -37 436.15000000000003 37.5" height="11.769584243272437" data-palette-color="url(#2b79dfd8-04e2-485b-b123-e9231c4f9d2d)"><path d="M13.2-36.8L13.2-36.8Q13.95-36.8 14.83-36.65 15.7-36.5 16.35-36.13 17-35.75 17-35L17-35Q17-34.45 16.6-34.02 16.2-33.6 15.7-33.6L15.7-33.6Q15.2-33.6 14.45-33.88 13.7-34.15 12.85-34.15L12.85-34.15Q11.8-34.15 11.05-33.68 10.3-33.2 9.9-32.33 9.5-31.45 9.5-30.2L9.5-30.2 9.5-1.5Q9.5-0.9 9.08-0.45 8.65 0 8 0L8 0Q7.35 0 6.93-0.45 6.5-0.9 6.5-1.5L6.5-1.5 6.5-30.2Q6.5-33.4 8.38-35.1 10.25-36.8 13.2-36.8ZM2.85-25.05L15.1-25.05Q15.7-25.05 16.1-24.65 16.5-24.25 16.5-23.65L16.5-23.65Q16.5-23.05 16.1-22.65 15.7-22.25 15.1-22.25L15.1-22.25 2.85-22.25Q2.3-22.25 1.88-22.68 1.45-23.1 1.45-23.65L1.45-23.65Q1.45-24.3 1.88-24.68 2.3-25.05 2.85-25.05L2.85-25.05ZM24.5-24.5L24.5-1.5Q24.5-0.9 24.05-0.45 23.6 0 23 0L23 0Q22.35 0 21.92-0.45 21.5-0.9 21.5-1.5L21.5-1.5 21.5-24.5Q21.5-25.1 21.92-25.55 22.35-26 23-26L23-26Q23.65-26 24.07-25.55 24.5-25.1 24.5-24.5L24.5-24.5ZM23-29.35L23-29.35Q21.95-29.35 21.42-29.83 20.9-30.3 20.9-31.2L20.9-31.2 20.9-31.7Q20.9-32.6 21.47-33.08 22.05-33.55 23.05-33.55L23.05-33.55Q24-33.55 24.52-33.08 25.05-32.6 25.05-31.7L25.05-31.7 25.05-31.2Q25.05-30.3 24.52-29.83 24-29.35 23-29.35ZM44.34-26.15L44.34-26.15Q47.65-26.15 49.62-24.83 51.59-23.5 52.47-21.23 53.34-18.95 53.34-16.2L53.34-16.2 53.34-1.5Q53.34-0.9 52.9-0.45 52.45 0 51.84 0L51.84 0Q51.15 0 50.75-0.45 50.34-0.9 50.34-1.5L50.34-1.5 50.34-16.05Q50.34-18.05 49.7-19.7 49.05-21.35 47.57-22.35 46.09-23.35 43.7-23.35L43.7-23.35Q41.55-23.35 39.62-22.35 37.7-21.35 36.5-19.7 35.3-18.05 35.3-16.05L35.3-16.05 35.3-1.5Q35.3-0.9 34.84-0.45 34.4 0 33.8 0L33.8 0Q33.09 0 32.7-0.45 32.3-0.9 32.3-1.5L32.3-1.5 32.3-23.9Q32.3-24.5 32.72-24.95 33.15-25.4 33.8-25.4L33.8-25.4Q34.45-25.4 34.87-24.95 35.3-24.5 35.3-23.9L35.3-23.9 35.3-19.7 34.15-17.9Q34.25-19.5 35.17-20.98 36.09-22.45 37.55-23.63 39-24.8 40.77-25.48 42.55-26.15 44.34-26.15ZM81.94-37L81.94-37Q82.59-37 83.02-36.58 83.44-36.15 83.44-35.5L83.44-35.5 83.44-1.5Q83.44-0.9 82.99-0.45 82.54 0 81.94 0L81.94 0Q81.24 0 80.84-0.45 80.44-0.9 80.44-1.5L80.44-1.5 80.44-7.45 81.29-8.15Q81.29-6.75 80.54-5.23 79.79-3.7 78.42-2.4 77.04-1.1 75.22-0.3 73.39 0.5 71.24 0.5L71.24 0.5Q67.94 0.5 65.27-1.25 62.59-3 61.04-6 59.49-9 59.49-12.85L59.49-12.85Q59.49-16.65 61.04-19.68 62.59-22.7 65.24-24.43 67.89-26.15 71.19-26.15L71.19-26.15Q73.29-26.15 75.14-25.4 76.99-24.65 78.42-23.35 79.84-22.05 80.67-20.38 81.49-18.7 81.49-16.9L81.49-16.9 80.44-17.65 80.44-35.5Q80.44-36.1 80.84-36.55 81.24-37 81.94-37ZM71.54-2.3L71.54-2.3Q74.19-2.3 76.24-3.68 78.29-5.05 79.47-7.43 80.64-9.8 80.64-12.85L80.64-12.85Q80.64-15.85 79.47-18.23 78.29-20.6 76.24-21.98 74.19-23.35 71.54-23.35L71.54-23.35Q68.94-23.35 66.87-21.98 64.79-20.6 63.62-18.23 62.44-15.85 62.44-12.85L62.44-12.85Q62.44-9.85 63.62-7.45 64.79-5.05 66.87-3.68 68.94-2.3 71.54-2.3ZM103.29-25.45L103.29-25.45 114.94-25.45Q115.54-25.45 115.94-25.03 116.34-24.6 116.34-24L116.34-24Q116.34-23.45 115.94-23.05 115.54-22.65 114.94-22.65L114.94-22.65 103.29-22.65Q102.69-22.65 102.26-23.08 101.84-23.5 101.84-24.05L101.84-24.05Q101.84-24.65 102.26-25.05 102.69-25.45 103.29-25.45ZM108.44-32.5L108.44-32.5Q109.09-32.5 109.51-32.05 109.94-31.6 109.94-31L109.94-31 109.94-5.9Q109.94-4.5 110.31-3.8 110.69-3.1 111.29-2.88 111.89-2.65 112.49-2.65L112.49-2.65Q112.89-2.65 113.21-2.78 113.54-2.9 113.94-2.9L113.94-2.9Q114.39-2.9 114.71-2.55 115.04-2.2 115.04-1.65L115.04-1.65Q115.04-0.95 114.24-0.48 113.44 0 112.34 0L112.34 0Q111.89 0 110.99-0.08 110.09-0.15 109.14-0.63 108.19-1.1 107.56-2.3 106.94-3.5 106.94-5.75L106.94-5.75 106.94-31Q106.94-31.6 107.36-32.05 107.79-32.5 108.44-32.5ZM133.54-25.75L133.54-25.75Q136.69-25.75 138.64-24.4 140.59-23.05 141.51-20.75 142.44-18.45 142.44-15.65L142.44-15.65 142.44-1.5Q142.44-0.9 141.99-0.45 141.54 0 140.94 0L140.94 0Q140.24 0 139.84-0.45 139.44-0.9 139.44-1.5L139.44-1.5 139.44-15.65Q139.44-17.7 138.81-19.35 138.19-21 136.79-21.98 135.39-22.95 133.04-22.95L133.04-22.95Q130.94-22.95 129.06-21.98 127.19-21 126.04-19.35 124.89-17.7 124.89-15.65L124.89-15.65 124.89-1.5Q124.89-0.9 124.44-0.45 123.99 0 123.39 0L123.39 0Q122.69 0 122.29-0.45 121.89-0.9 121.89-1.5L121.89-1.5 121.89-35.5Q121.89-36.1 122.31-36.55 122.74-37 123.39-37L123.39-37Q124.04-37 124.46-36.55 124.89-36.1 124.89-35.5L124.89-35.5 124.89-19.3 123.74-17.55Q123.84-19.1 124.71-20.58 125.59-22.05 126.99-23.23 128.39-24.4 130.09-25.08 131.79-25.75 133.54-25.75ZM161.63 0.5L161.63 0.5Q157.78 0.5 154.83-1.15 151.88-2.8 150.23-5.75 148.58-8.7 148.58-12.65L148.58-12.65Q148.58-16.9 150.26-19.9 151.93-22.9 154.61-24.53 157.28-26.15 160.28-26.15L160.28-26.15Q162.48-26.15 164.56-25.38 166.63-24.6 168.23-23.08 169.83-21.55 170.83-19.35 171.83-17.15 171.88-14.25L171.88-14.25Q171.88-13.65 171.43-13.23 170.98-12.8 170.38-12.8L170.38-12.8 150.33-12.8 149.73-15.5 169.43-15.5 168.78-14.9 168.78-15.9Q168.53-18.25 167.23-19.9 165.93-21.55 164.11-22.4 162.28-23.25 160.28-23.25L160.28-23.25Q158.78-23.25 157.21-22.65 155.63-22.05 154.36-20.78 153.08-19.5 152.28-17.53 151.48-15.55 151.48-12.85L151.48-12.85Q151.48-9.9 152.68-7.5 153.88-5.1 156.13-3.7 158.38-2.3 161.58-2.3L161.58-2.3Q163.28-2.3 164.68-2.8 166.08-3.3 167.16-4.13 168.23-4.95 168.93-5.85L168.93-5.85Q169.48-6.3 169.98-6.3L169.98-6.3Q170.53-6.3 170.91-5.9 171.28-5.5 171.28-5L171.28-5Q171.28-4.4 170.78-3.95L170.78-3.95Q169.28-2.15 166.88-0.83 164.48 0.5 161.63 0.5ZM203.88-26.15L203.88-26.15Q207.28-26.15 209.9-24.45 212.53-22.75 214.08-19.78 215.63-16.8 215.63-12.9L215.63-12.9Q215.63-9.1 214.08-6.05 212.53-3 209.88-1.25 207.23 0.5 203.93 0.5L203.93 0.5Q202.18 0.5 200.6-0.05 199.03-0.6 197.73-1.53 196.43-2.45 195.43-3.7 194.43-4.95 193.83-6.4L193.83-6.4 194.73-7.05 194.73-1.4Q194.73-0.75 194.3-0.33 193.88 0.1 193.23 0.1L193.23 0.1Q192.58 0.1 192.15-0.33 191.73-0.75 191.73-1.4L191.73-1.4 191.73-35.45Q191.73-36.1 192.13-36.52 192.53-36.95 193.23-36.95L193.23-36.95Q193.88-36.95 194.3-36.52 194.73-36.1 194.73-35.45L194.73-35.45 194.73-18.7 194.03-19.1Q194.53-20.65 195.5-21.93 196.48-23.2 197.78-24.15 199.08-25.1 200.63-25.63 202.18-26.15 203.88-26.15ZM203.63-23.35L203.63-23.35Q200.93-23.35 198.88-22 196.83-20.65 195.65-18.3 194.48-15.95 194.48-12.9L194.48-12.9Q194.48-9.9 195.65-7.48 196.83-5.05 198.88-3.68 200.93-2.3 203.63-2.3L203.63-2.3Q206.28-2.3 208.3-3.7 210.33-5.1 211.53-7.53 212.73-9.95 212.73-12.9L212.73-12.9Q212.73-15.95 211.53-18.3 210.33-20.65 208.3-22 206.28-23.35 203.63-23.35ZM233.18 0.5L233.18 0.5Q229.33 0.5 226.38-1.15 223.43-2.8 221.78-5.75 220.13-8.7 220.13-12.65L220.13-12.65Q220.13-16.9 221.8-19.9 223.48-22.9 226.15-24.53 228.83-26.15 231.83-26.15L231.83-26.15Q234.03-26.15 236.1-25.38 238.18-24.6 239.78-23.08 241.38-21.55 242.38-19.35 243.38-17.15 243.43-14.25L243.43-14.25Q243.43-13.65 242.98-13.23 242.53-12.8 241.93-12.8L241.93-12.8 221.88-12.8 221.28-15.5 240.98-15.5 240.33-14.9 240.33-15.9Q240.08-18.25 238.78-19.9 237.48-21.55 235.65-22.4 233.83-23.25 231.83-23.25L231.83-23.25Q230.33-23.25 228.75-22.65 227.18-22.05 225.9-20.78 224.63-19.5 223.83-17.53 223.03-15.55 223.03-12.85L223.03-12.85Q223.03-9.9 224.23-7.5 225.43-5.1 227.68-3.7 229.93-2.3 233.13-2.3L233.13-2.3Q234.83-2.3 236.23-2.8 237.63-3.3 238.7-4.13 239.78-4.95 240.48-5.85L240.48-5.85Q241.03-6.3 241.53-6.3L241.53-6.3Q242.08-6.3 242.45-5.9 242.83-5.5 242.83-5L242.83-5Q242.83-4.4 242.33-3.95L242.33-3.95Q240.83-2.15 238.43-0.83 236.03 0.5 233.18 0.5ZM248.17-4.05L248.17-4.05Q247.77-4.65 247.8-5.23 247.82-5.8 248.42-6.15L248.42-6.15Q248.82-6.5 249.35-6.45 249.87-6.4 250.32-5.95L250.32-5.95Q251.67-4.2 253.6-3.13 255.52-2.05 258.17-2.05L258.17-2.05Q259.57-2.05 260.95-2.53 262.32-3 263.22-3.98 264.12-4.95 264.12-6.45L264.12-6.45Q264.12-8 263.22-8.95 262.32-9.9 260.9-10.45 259.47-11 257.87-11.4L257.87-11.4Q256.17-11.85 254.57-12.43 252.97-13 251.75-13.88 250.52-14.75 249.77-16 249.02-17.25 249.02-19.05L249.02-19.05Q249.02-21.15 250.17-22.75 251.32-24.35 253.3-25.25 255.27-26.15 257.77-26.15L257.77-26.15Q259.02-26.15 260.47-25.83 261.92-25.5 263.32-24.75 264.72-24 265.82-22.7L265.82-22.7Q266.27-22.25 266.27-21.68 266.27-21.1 265.77-20.65L265.77-20.65Q265.37-20.35 264.85-20.35 264.32-20.35 263.97-20.75L263.97-20.75Q262.77-22.1 261.12-22.8 259.47-23.5 257.57-23.5L257.57-23.5Q256.12-23.5 254.85-23.03 253.57-22.55 252.72-21.6 251.87-20.65 251.87-19.1L251.87-19.1Q251.97-17.65 252.9-16.75 253.82-15.85 255.35-15.25 256.87-14.65 258.77-14.15L258.77-14.15Q260.37-13.75 261.85-13.2 263.32-12.65 264.45-11.83 265.57-11 266.25-9.75 266.92-8.5 266.92-6.6L266.92-6.6Q266.92-4.4 265.7-2.8 264.47-1.2 262.42-0.35 260.37 0.5 257.87 0.5L257.87 0.5Q255.17 0.5 252.65-0.55 250.12-1.6 248.17-4.05ZM271.42-25.45L271.42-25.45 283.07-25.45Q283.67-25.45 284.07-25.03 284.47-24.6 284.47-24L284.47-24Q284.47-23.45 284.07-23.05 283.67-22.65 283.07-22.65L283.07-22.65 271.42-22.65Q270.82-22.65 270.4-23.08 269.97-23.5 269.97-24.05L269.97-24.05Q269.97-24.65 270.4-25.05 270.82-25.45 271.42-25.45ZM276.57-32.5L276.57-32.5Q277.22-32.5 277.65-32.05 278.07-31.6 278.07-31L278.07-31 278.07-5.9Q278.07-4.5 278.45-3.8 278.82-3.1 279.42-2.88 280.02-2.65 280.62-2.65L280.62-2.65Q281.02-2.65 281.35-2.78 281.67-2.9 282.07-2.9L282.07-2.9Q282.52-2.9 282.85-2.55 283.17-2.2 283.17-1.65L283.17-1.65Q283.17-0.95 282.37-0.48 281.57 0 280.47 0L280.47 0Q280.02 0 279.12-0.08 278.22-0.15 277.27-0.63 276.32-1.1 275.7-2.3 275.07-3.5 275.07-5.75L275.07-5.75 275.07-31Q275.07-31.6 275.5-32.05 275.92-32.5 276.57-32.5ZM324.42-25.55L324.42-25.55Q325.07-25.55 325.49-25.1 325.92-24.65 325.92-24L325.92-24 325.92-1.5Q325.92-0.9 325.47-0.45 325.02 0 324.42 0L324.42 0Q323.72 0 323.32-0.45 322.92-0.9 322.92-1.5L322.92-1.5 322.92-7.45 323.77-7.85Q323.77-6.45 322.99-5 322.22-3.55 320.87-2.3 319.52-1.05 317.69-0.28 315.87 0.5 313.72 0.5L313.72 0.5Q310.37 0.5 307.69-1.25 305.02-3 303.49-6.05 301.97-9.1 301.97-12.9L301.97-12.9Q301.97-16.8 303.52-19.78 305.07-22.75 307.72-24.45 310.37-26.15 313.67-26.15L313.67-26.15Q315.82-26.15 317.69-25.4 319.57-24.65 320.97-23.35 322.37-22.05 323.17-20.38 323.97-18.7 323.97-16.9L323.97-16.9 322.92-17.65 322.92-24Q322.92-24.65 323.32-25.1 323.72-25.55 324.42-25.55ZM314.02-2.3L314.02-2.3Q316.67-2.3 318.72-3.68 320.77-5.05 321.94-7.48 323.12-9.9 323.12-12.9L323.12-12.9Q323.12-15.85 321.94-18.2 320.77-20.55 318.72-21.95 316.67-23.35 314.02-23.35L314.02-23.35Q311.42-23.35 309.34-22 307.27-20.65 306.09-18.3 304.92-15.95 304.92-12.9L304.92-12.9Q304.92-9.9 306.07-7.48 307.22-5.05 309.29-3.68 311.37-2.3 314.02-2.3ZM336.66-24.5L336.66-1.5Q336.66-0.9 336.21-0.45 335.76 0 335.16 0L335.16 0Q334.51 0 334.09-0.45 333.66-0.9 333.66-1.5L333.66-1.5 333.66-24.5Q333.66-25.1 334.09-25.55 334.51-26 335.16-26L335.16-26Q335.81-26 336.24-25.55 336.66-25.1 336.66-24.5L336.66-24.5ZM335.16-29.35L335.16-29.35Q334.11-29.35 333.59-29.83 333.06-30.3 333.06-31.2L333.06-31.2 333.06-31.7Q333.06-32.6 333.64-33.08 334.21-33.55 335.21-33.55L335.21-33.55Q336.16-33.55 336.69-33.08 337.21-32.6 337.21-31.7L337.21-31.7 337.21-31.2Q337.21-30.3 336.69-29.83 336.16-29.35 335.16-29.35ZM356.46-25.45L356.46-25.45 368.11-25.45Q368.71-25.45 369.11-25.03 369.51-24.6 369.51-24L369.51-24Q369.51-23.45 369.11-23.05 368.71-22.65 368.11-22.65L368.11-22.65 356.46-22.65Q355.86-22.65 355.43-23.08 355.01-23.5 355.01-24.05L355.01-24.05Q355.01-24.65 355.43-25.05 355.86-25.45 356.46-25.45ZM361.61-32.5L361.61-32.5Q362.26-32.5 362.68-32.05 363.11-31.6 363.11-31L363.11-31 363.11-5.9Q363.11-4.5 363.48-3.8 363.86-3.1 364.46-2.88 365.06-2.65 365.66-2.65L365.66-2.65Q366.06-2.65 366.38-2.78 366.71-2.9 367.11-2.9L367.11-2.9Q367.56-2.9 367.88-2.55 368.21-2.2 368.21-1.65L368.21-1.65Q368.21-0.95 367.41-0.48 366.61 0 365.51 0L365.51 0Q365.06 0 364.16-0.08 363.26-0.15 362.31-0.63 361.36-1.1 360.73-2.3 360.11-3.5 360.11-5.75L360.11-5.75 360.11-31Q360.11-31.6 360.53-32.05 360.96-32.5 361.61-32.5ZM398.41-12.8L398.41-12.8Q398.41-9 396.73-5.98 395.06-2.95 392.21-1.23 389.36 0.5 385.75 0.5L385.75 0.5Q382.21 0.5 379.33-1.23 376.46-2.95 374.78-5.98 373.11-9 373.11-12.8L373.11-12.8Q373.11-16.65 374.78-19.65 376.46-22.65 379.33-24.4 382.21-26.15 385.75-26.15L385.75-26.15Q389.36-26.15 392.21-24.4 395.06-22.65 396.73-19.65 398.41-16.65 398.41-12.8ZM395.41-12.8L395.41-12.8Q395.41-15.85 394.16-18.23 392.91-20.6 390.73-21.98 388.56-23.35 385.75-23.35L385.75-23.35Q383-23.35 380.83-21.98 378.66-20.6 377.38-18.23 376.11-15.85 376.11-12.8L376.11-12.8Q376.11-9.75 377.38-7.4 378.66-5.05 380.83-3.68 383-2.3 385.75-2.3L385.75-2.3Q388.56-2.3 390.73-3.68 392.91-5.05 394.16-7.4 395.41-9.75 395.41-12.8ZM428.15-12.8L428.15-12.8Q428.15-9 426.48-5.98 424.8-2.95 421.95-1.23 419.1 0.5 415.5 0.5L415.5 0.5Q411.95 0.5 409.08-1.23 406.2-2.95 404.53-5.98 402.85-9 402.85-12.8L402.85-12.8Q402.85-16.65 404.53-19.65 406.2-22.65 409.08-24.4 411.95-26.15 415.5-26.15L415.5-26.15Q419.1-26.15 421.95-24.4 424.8-22.65 426.48-19.65 428.15-16.65 428.15-12.8ZM425.15-12.8L425.15-12.8Q425.15-15.85 423.9-18.23 422.65-20.6 420.48-21.98 418.3-23.35 415.5-23.35L415.5-23.35Q412.75-23.35 410.58-21.98 408.4-20.6 407.13-18.23 405.85-15.85 405.85-12.8L405.85-12.8Q405.85-9.75 407.13-7.4 408.4-5.05 410.58-3.68 412.75-2.3 415.5-2.3L415.5-2.3Q418.3-2.3 420.48-3.68 422.65-5.05 423.9-7.4 425.15-9.75 425.15-12.8ZM437.6-35.5L437.6-1.5Q437.6-0.9 437.15-0.45 436.7 0 436.1 0L436.1 0Q435.45 0 435.03-0.45 434.6-0.9 434.6-1.5L434.6-1.5 434.6-35.5Q434.6-36.1 435.05-36.55 435.5-37 436.1-37L436.1-37Q436.75-37 437.18-36.55 437.6-36.1 437.6-35.5L437.6-35.5Z" opacity="1" transform="matrix(1,0,0,1,0,0)" fill="black" class="slogan-text-1" id="SvgjsPath5628"></path></svg></g></svg></g></svg></g></svg></g></svg></g><defs><mask></mask></defs></svg><rect width="260.4913042334081" height="247.2" fill="black" stroke="none" visibility="hidden"></rect></g></mask></svg><rect width="260.4913042334081" height="247.2" fill="black" stroke="none" visibility="hidden"></rect></g></mask></svg><rect width="260.4913042334081" height="247.2" fill="black" stroke="none" visibility="hidden"></rect></g></mask><linearGradient x1="0" x2="1" y1="0.5" y2="0.5" id="9a919731-63f1-4f80-84d3-ddc4d4c0090c"><stop stop-color="#f00b51" offset="0"></stop><stop stop-color="#730062" offset="1"></stop></linearGradient></svg><rect width="260.4913042334081" height="247.2" fill="none" stroke="none" visibility="hidden"></rect></g></svg></g></svg>